<svg width="9" height="7" viewBox="0 0 9 7" fill="none" xmlns="http://www.w3.org/2000/svg">
<path d="M1.81339 4.00004C1.68828 3.88753 1.52527 3.82649 1.35703 3.82915C1.1888 3.83182 1.0278 3.898 0.906325 4.01441C0.784848 4.13083 0.711883 4.28887 0.702065 4.45683C0.692246 4.6248 0.746301 4.79027 0.853386 4.92004L2.33339 6.47337C2.39535 6.53838 2.46981 6.59019 2.55229 6.6257C2.63477 6.66121 2.72358 6.6797 2.81339 6.68004C2.90271 6.68056 2.99123 6.66313 3.07369 6.62877C3.15615 6.59441 3.23086 6.54384 3.29339 6.48004L7.81339 1.81337C7.87467 1.75034 7.92294 1.67585 7.95543 1.59416C7.98793 1.51247 8.00402 1.42519 8.00278 1.33728C8.00154 1.24937 7.983 1.16257 7.94822 1.08183C7.91343 1.00109 7.86309 0.927991 7.80005 0.866707C7.73702 0.805424 7.66253 0.757156 7.58084 0.724659C7.49915 0.692163 7.41186 0.676074 7.32396 0.677312C7.23605 0.678551 7.14925 0.697091 7.06851 0.731875C6.98777 0.766659 6.91467 0.817006 6.85339 0.88004L2.82005 5.05337L1.81339 4.00004Z" fill="#13243E"/>
</svg>
