<svg width="19" height="23" viewBox="0 0 19 23" fill="none" xmlns="http://www.w3.org/2000/svg">
<path d="M17 18.8629H6C5.45 18.8629 4.97933 18.6672 4.588 18.2759C4.196 17.8839 4 17.4129 4 16.8629V2.86285C4 2.31285 4.196 1.84185 4.588 1.44985C4.97933 1.05852 5.45 0.862854 6 0.862854H12.175C12.4417 0.862854 12.696 0.912854 12.938 1.01285C13.1793 1.11285 13.3917 1.25452 13.575 1.43785L18.425 6.28785C18.6083 6.47119 18.75 6.68352 18.85 6.92485C18.95 7.16685 19 7.42119 19 7.68785V16.8629C19 17.4129 18.8043 17.8839 18.413 18.2759C18.021 18.6672 17.55 18.8629 17 18.8629ZM12 2.86285H6V16.8629H17V7.86285H13C12.7167 7.86285 12.4793 7.76719 12.288 7.57585C12.096 7.38385 12 7.14619 12 6.86285V2.86285ZM2 22.8629C1.45 22.8629 0.979333 22.6672 0.588 22.2759C0.196 21.8839 0 21.4129 0 20.8629V7.86285C0 7.57952 0.0960001 7.34185 0.288 7.14985C0.479333 6.95852 0.716667 6.86285 1 6.86285C1.28333 6.86285 1.521 6.95852 1.713 7.14985C1.90433 7.34185 2 7.57952 2 7.86285V20.8629H12C12.2833 20.8629 12.521 20.9589 12.713 21.1509C12.9043 21.3422 13 21.5795 13 21.8629C13 22.1462 12.9043 22.3835 12.713 22.5749C12.521 22.7669 12.2833 22.8629 12 22.8629H2ZM6 2.86285V6.86285C6 7.14619 6 7.38385 6 7.57585C6 7.76719 6 7.86285 6 7.86285V2.86285V6.86285C6 7.14619 6 7.38385 6 7.57585C6 7.76719 6 7.86285 6 7.86285V16.8629V2.86285Z" fill="#E99A3D"/>
</svg>
