<svg width="20" height="21" viewBox="0 0 20 21" fill="none" xmlns="http://www.w3.org/2000/svg">
<path fill-rule="evenodd" clip-rule="evenodd" d="M8.20002 2.85901C7.98785 2.85901 7.78437 2.94329 7.63434 3.09332C7.48431 3.24335 7.40002 3.44684 7.40002 3.65901V4.45901L12.6 4.45901V3.65901C12.6 3.44684 12.5157 3.24335 12.3657 3.09332C12.2157 2.94329 12.0122 2.85901 11.8 2.85901H8.20002ZM14.6 4.45901V3.65901C14.6 2.9164 14.305 2.20421 13.7799 1.67911C13.2548 1.15401 12.5426 0.859009 11.8 0.859009H8.20002C7.45742 0.859009 6.74523 1.15401 6.22013 1.67911C5.69502 2.20421 5.40002 2.9164 5.40002 3.65901V4.45901H1.90002C1.34774 4.45901 0.900024 4.90672 0.900024 5.45901C0.900024 6.01129 1.34774 6.45901 1.90002 6.45901H2.70002V18.059C2.70002 18.8016 2.99502 19.5138 3.52013 20.0389C4.04523 20.564 4.75742 20.859 5.50002 20.859H14.5C15.2426 20.859 15.9548 20.564 16.4799 20.0389C17.005 19.5138 17.3 18.8016 17.3 18.059V6.45901H18.1C18.6523 6.45901 19.1 6.01129 19.1 5.45901C19.1 4.90672 18.6523 4.45901 18.1 4.45901H16.3007C16.3009 4.45901 16.3005 4.45901 16.3007 4.45901L14.6 4.45901ZM15.3 6.45901L4.70002 6.45901V18.059C4.70002 18.2712 4.78431 18.4747 4.93434 18.6247C5.08437 18.7747 5.28785 18.859 5.50002 18.859H14.5C14.7122 18.859 14.9157 18.7747 15.0657 18.6247C15.2157 18.4747 15.3 18.2712 15.3 18.059V6.45901ZM8.20002 8.95901C8.75231 8.95901 9.20002 9.40672 9.20002 9.95901V15.359C9.20002 15.9113 8.75231 16.359 8.20002 16.359C7.64774 16.359 7.20002 15.9113 7.20002 15.359V9.95901C7.20002 9.40672 7.64774 8.95901 8.20002 8.95901ZM11.8 8.95901C12.3523 8.95901 12.8 9.40672 12.8 9.95901V15.359C12.8 15.9113 12.3523 16.359 11.8 16.359C11.2477 16.359 10.8 15.9113 10.8 15.359V9.95901C10.8 9.40672 11.2477 8.95901 11.8 8.95901Z" fill="#FFA726"/>
</svg>
