<svg width="21" height="21" viewBox="0 0 21 21" fill="none" xmlns="http://www.w3.org/2000/svg">
<path fill-rule="evenodd" clip-rule="evenodd" d="M11.2071 14.57C10.8166 14.9605 10.1834 14.9605 9.79289 14.57L4.79289 9.56996C4.40237 9.17944 4.40237 8.54627 4.79289 8.15575C5.18342 7.76522 5.81658 7.76522 6.20711 8.15575L9.5 11.4486V1.86285C9.5 1.31057 9.94772 0.862854 10.5 0.862854C11.0523 0.862854 11.5 1.31057 11.5 1.86285V11.4486L14.7929 8.15575C15.1834 7.76522 15.8166 7.76522 16.2071 8.15575C16.5976 8.54627 16.5976 9.17944 16.2071 9.56996L11.2071 14.57ZM1.5 12.8629C2.05228 12.8629 2.5 13.3106 2.5 13.8629V17.8629C2.5 18.1281 2.60536 18.3824 2.79289 18.57C2.98043 18.7575 3.23478 18.8629 3.5 18.8629H17.5C17.7652 18.8629 18.0196 18.7575 18.2071 18.57C18.3946 18.3824 18.5 18.1281 18.5 17.8629V13.8629C18.5 13.3106 18.9477 12.8629 19.5 12.8629C20.0523 12.8629 20.5 13.3106 20.5 13.8629V17.8629C20.5 18.6585 20.1839 19.4216 19.6213 19.9842C19.0587 20.5468 18.2957 20.8629 17.5 20.8629H3.5C2.70435 20.8629 1.94129 20.5468 1.37868 19.9842C0.81607 19.4216 0.5 18.6585 0.5 17.8629V13.8629C0.5 13.3106 0.947715 12.8629 1.5 12.8629Z" fill="#E99A3D"/>
</svg>
