<svg width="22" height="23" viewBox="0 0 22 23" fill="none" xmlns="http://www.w3.org/2000/svg">
<path fill-rule="evenodd" clip-rule="evenodd" d="M16.2929 1.15575C16.6834 0.765223 17.3166 0.765223 17.7071 1.15575L21.7071 5.15575C22.0976 5.54627 22.0976 6.17944 21.7071 6.56996L11.7071 16.57C11.5196 16.7575 11.2652 16.8629 11 16.8629H7C6.44772 16.8629 6 16.4151 6 15.8629V11.8629C6 11.5976 6.10536 11.3433 6.29289 11.1557L16.2929 1.15575ZM8 12.2771V14.8629H10.5858L19.5858 5.86285L17 3.27707L8 12.2771ZM3 4.86285C2.73478 4.86285 2.48043 4.96821 2.29289 5.15575C2.10536 5.34328 2 5.59764 2 5.86285V19.8629C2 20.1281 2.10536 20.3824 2.29289 20.57C2.48043 20.7575 2.73478 20.8629 3 20.8629H17C17.2652 20.8629 17.5196 20.7575 17.7071 20.57C17.8946 20.3824 18 20.1281 18 19.8629V14.5229C18 13.9706 18.4477 13.5229 19 13.5229C19.5523 13.5229 20 13.9706 20 14.5229V19.8629C20 20.6585 19.6839 21.4216 19.1213 21.9842C18.5587 22.5468 17.7956 22.8629 17 22.8629H3C2.20435 22.8629 1.44129 22.5468 0.878679 21.9842C0.31607 21.4216 0 20.6585 0 19.8629V5.86285C0 5.0672 0.31607 4.30414 0.878679 3.74153C1.44129 3.17892 2.20435 2.86285 3 2.86285H8.34C8.89228 2.86285 9.34 3.31057 9.34 3.86285C9.34 4.41514 8.89228 4.86285 8.34 4.86285H3Z" fill="#FFA726"/>
</svg>
