<svg width="21" height="21" viewBox="0 0 21 21" fill="none" xmlns="http://www.w3.org/2000/svg">
<path fill-rule="evenodd" clip-rule="evenodd" d="M1.04121 4.00981C-0.121037 2.84747 0.706511 0.862366 2.34497 0.862366H18.6556C20.2995 0.862366 21.1179 2.85126 19.9594 4.00981C19.9594 4.00982 19.9594 4.00981 19.9594 4.00981L13.7502 10.2198V19.0179C13.7502 20.5223 12.0592 21.3753 10.8493 20.5285C10.8493 20.5285 10.8494 20.5285 10.8493 20.5285L8.03681 18.5604C7.544 18.2154 7.25024 17.6515 7.25024 17.0499V10.2198L1.04121 4.00981C1.04123 4.00982 1.04119 4.00979 1.04121 4.00981ZM2.72216 2.86237L9.25024 9.39143V16.9685L11.7502 18.7179V9.39143L18.2785 2.86237H2.72216ZM18.5451 2.59569C18.545 2.59579 18.5452 2.59559 18.5451 2.59569V2.59569Z" fill="#E99A3D"/>
</svg>
