<svg width="22" height="21" viewBox="0 0 22 21" fill="none" xmlns="http://www.w3.org/2000/svg">
<path fill-rule="evenodd" clip-rule="evenodd" d="M1.02024 3.87185C-0.0929507 2.76064 0.699664 0.862854 2.26896 0.862854H17.8911C19.4656 0.862854 20.2494 2.76426 19.1399 3.87186C19.1399 3.87187 19.1399 3.87185 19.1399 3.87186L13.1928 9.80868V18.2198C13.1928 19.658 11.5732 20.4735 10.4143 19.6639C10.4143 19.6639 10.4143 19.664 10.4143 19.6639L7.72053 17.7825C7.24853 17.4526 6.96716 16.9135 6.96716 16.3383V9.80867L1.02024 3.87185C1.02025 3.87187 1.02022 3.87184 1.02024 3.87185ZM2.63023 2.77488L8.88274 9.01677V16.2606L11.2772 17.933V9.01676L17.5299 2.77488H2.63023ZM21.2194 14.5647C21.5935 14.938 21.5935 15.5433 21.2194 15.9167L19.5593 17.5737L21.2195 19.2308C21.5935 19.6041 21.5935 20.2094 21.2195 20.5828C20.8454 20.9561 20.239 20.9561 19.865 20.5828L18.2048 18.9258L16.5447 20.5828C16.1707 20.9562 15.5642 20.9562 15.1902 20.5828C14.8161 20.2095 14.8161 19.6042 15.1902 19.2308L16.8503 17.5738L15.1901 15.9167C14.8161 15.5434 14.8161 14.9381 15.1901 14.5647C15.5642 14.1914 16.1706 14.1914 16.5446 14.5647L18.2048 16.2217L19.8649 14.5647C20.2389 14.1913 20.8454 14.1913 21.2194 14.5647Z" fill="#E47C7C"/>
</svg>
