<svg width="12" height="10" viewBox="0 0 12 10" fill="none" xmlns="http://www.w3.org/2000/svg">
<path d="M2.05209 4.21172C1.92443 4.07658 1.74673 4 1.56082 4C0.969048 4 0.663059 4.70669 1.06797 5.13824L5.4343 9.79188C5.69665 10.0694 6.12381 10.0694 6.38617 9.79188L10.7638 5.15902C11.1778 4.72087 10.8672 4 10.2644 4C10.0753 4 9.89468 4.07786 9.76488 4.21526L6.38609 7.79188C6.12374 8.06937 5.69657 8.06937 5.43422 7.79188L2.05209 4.21172Z" fill="white"/>
<path fill-rule="evenodd" clip-rule="evenodd" d="M1.58302 0L10.2373 0C10.836 0 11.1353 0.764898 10.7115 1.21316L6.38609 5.79188C6.12374 6.06937 5.69657 6.06937 5.43422 5.79188L1.10876 1.21316C0.684964 0.764898 0.984315 0 1.58302 0Z" fill="white"/>
</svg>
