<svg width="25" height="21" viewBox="0 0 25 21" fill="none" xmlns="http://www.w3.org/2000/svg">
<path fill-rule="evenodd" clip-rule="evenodd" d="M9 2.86285C7.34315 2.86285 6 4.206 6 5.86285C6 7.51971 7.34315 8.86285 9 8.86285C10.6569 8.86285 12 7.51971 12 5.86285C12 4.206 10.6569 2.86285 9 2.86285ZM4 5.86285C4 3.10143 6.23858 0.862854 9 0.862854C11.7614 0.862854 14 3.10143 14 5.86285C14 8.62428 11.7614 10.8629 9 10.8629C6.23858 10.8629 4 8.62428 4 5.86285ZM20.5 5.86285C21.0523 5.86285 21.5 6.31057 21.5 6.86285V8.86285H23.5C24.0523 8.86285 24.5 9.31057 24.5 9.86285C24.5 10.4151 24.0523 10.8629 23.5 10.8629H21.5V12.8629C21.5 13.4151 21.0523 13.8629 20.5 13.8629C19.9477 13.8629 19.5 13.4151 19.5 12.8629V10.8629H17.5C16.9477 10.8629 16.5 10.4151 16.5 9.86285C16.5 9.31057 16.9477 8.86285 17.5 8.86285H19.5V6.86285C19.5 6.31057 19.9477 5.86285 20.5 5.86285ZM1.96447 14.3273C2.90215 13.3896 4.17392 12.8629 5.5 12.8629H12.5C13.8261 12.8629 15.0979 13.3896 16.0355 14.3273C16.9732 15.265 17.5 16.5368 17.5 17.8629V19.8629C17.5 20.4151 17.0523 20.8629 16.5 20.8629C15.9477 20.8629 15.5 20.4151 15.5 19.8629V17.8629C15.5 17.0672 15.1839 16.3041 14.6213 15.7415C14.0587 15.1789 13.2956 14.8629 12.5 14.8629H5.5C4.70435 14.8629 3.94129 15.1789 3.37868 15.7415C2.81607 16.3041 2.5 17.0672 2.5 17.8629V19.8629C2.5 20.4151 2.05228 20.8629 1.5 20.8629C0.947715 20.8629 0.5 20.4151 0.5 19.8629V17.8629C0.5 16.5368 1.02678 15.265 1.96447 14.3273Z" fill="#E99A3D"/>
</svg>
