<svg width="20" height="21" viewBox="0 0 20 21" fill="none" xmlns="http://www.w3.org/2000/svg">
<path d="M11 5.86285H9V9.86285H5V11.8629H9V15.8629H11V11.8629H15V9.86285H11V5.86285ZM10 0.862854C4.48 0.862854 0 5.34285 0 10.8629C0 16.3829 4.48 20.8629 10 20.8629C15.52 20.8629 20 16.3829 20 10.8629C20 5.34285 15.52 0.862854 10 0.862854ZM10 18.8629C5.59 18.8629 2 15.2729 2 10.8629C2 6.45285 5.59 2.86285 10 2.86285C14.41 2.86285 18 6.45285 18 10.8629C18 15.2729 14.41 18.8629 10 18.8629Z" fill="#E99A3D"/>
</svg>
