<svg width="21" height="21" viewBox="0 0 21 21" fill="none" xmlns="http://www.w3.org/2000/svg">
<path fill-rule="evenodd" clip-rule="evenodd" d="M9.79289 1.15575C10.1834 0.765223 10.8166 0.765223 11.2071 1.15575L16.2071 6.15575C16.5976 6.54627 16.5976 7.17944 16.2071 7.56996C15.8166 7.96048 15.1834 7.96048 14.7929 7.56996L11.5 4.27707V13.8629C11.5 14.4151 11.0523 14.8629 10.5 14.8629C9.94771 14.8629 9.5 14.4151 9.5 13.8629V4.27707L6.20711 7.56996C5.81658 7.96048 5.18342 7.96048 4.79289 7.56996C4.40237 7.17944 4.40237 6.54627 4.79289 6.15575L9.79289 1.15575ZM1.5 12.8629C2.05228 12.8629 2.5 13.3106 2.5 13.8629V17.8629C2.5 18.1281 2.60536 18.3824 2.79289 18.57C2.98043 18.7575 3.23478 18.8629 3.5 18.8629H17.5C17.7652 18.8629 18.0196 18.7575 18.2071 18.57C18.3946 18.3824 18.5 18.1281 18.5 17.8629V13.8629C18.5 13.3106 18.9477 12.8629 19.5 12.8629C20.0523 12.8629 20.5 13.3106 20.5 13.8629V17.8629C20.5 18.6585 20.1839 19.4216 19.6213 19.9842C19.0587 20.5468 18.2957 20.8629 17.5 20.8629H3.5C2.70435 20.8629 1.94129 20.5468 1.37868 19.9842C0.81607 19.4216 0.5 18.6585 0.5 17.8629V13.8629C0.5 13.3106 0.947715 12.8629 1.5 12.8629Z" fill="#E99A3D"/>
</svg>
