<svg width="20" height="20" viewBox="0 0 20 20" fill="none" xmlns="http://www.w3.org/2000/svg">
<path fill-rule="evenodd" clip-rule="evenodd" d="M0 10C0 4.47581 4.47581 0 10 0C15.5242 0 20 4.47581 20 10C20 15.5242 15.5242 20 10 20C4.47581 20 0 15.5242 0 10ZM15.3226 11.6129C15.5887 11.6129 15.8065 11.3952 15.8065 11.129V8.87097C15.8065 8.60484 15.5887 8.3871 15.3226 8.3871H11.6129V4.67742C11.6129 4.41129 11.3952 4.19355 11.129 4.19355H8.87097C8.60484 4.19355 8.3871 4.41129 8.3871 4.67742V8.3871H4.67742C4.41129 8.3871 4.19355 8.60484 4.19355 8.87097V11.129C4.19355 11.3952 4.41129 11.6129 4.67742 11.6129H8.3871V15.3226C8.3871 15.5887 8.60484 15.8065 8.87097 15.8065H11.129C11.3952 15.8065 11.6129 15.5887 11.6129 15.3226V11.6129H15.3226Z" fill="#13243E"/>
</svg>
