<svg width="19" height="20" viewBox="0 0 19 20" fill="none" xmlns="http://www.w3.org/2000/svg">
<path fill-rule="evenodd" clip-rule="evenodd" d="M18.0966 4.375V18.125C18.0966 19.1602 17.2281 20 16.1577 20H1.93892C0.868476 20 0 19.1602 0 18.125V4.375C0 3.33984 0.868476 2.5 1.93892 2.5H3.87785V0.46875C3.87785 0.210938 4.09598 0 4.36258 0H5.97835C6.24495 0 6.46308 0.210938 6.46308 0.46875V2.5H11.6335V0.46875C11.6335 0.210938 11.8517 0 12.1183 0H13.734C14.0006 0 14.2188 0.210938 14.2188 0.46875V2.5H16.1577C17.2281 2.5 18.0966 3.33984 18.0966 4.375ZM4.36217 11.2502H5.97794C6.24455 11.2502 6.46268 11.0393 6.46268 10.7814V9.21894C6.46268 8.96113 6.24455 8.75019 5.97794 8.75019H4.36217C4.09557 8.75019 3.87744 8.96113 3.87744 9.21894V10.7814C3.87744 11.0393 4.09557 11.2502 4.36217 11.2502ZM10.3405 9.21894V10.7814C10.3405 11.0393 10.1224 11.2502 9.85579 11.2502H8.24002C7.97342 11.2502 7.75529 11.0393 7.75529 10.7814V9.21894C7.75529 8.96113 7.97342 8.75019 8.24002 8.75019H9.85579C10.1224 8.75019 10.3405 8.96113 10.3405 9.21894ZM14.2184 10.7814V9.21894C14.2184 8.96113 14.0002 8.75019 13.7336 8.75019H12.1179C11.8513 8.75019 11.6331 8.96113 11.6331 9.21894V10.7814C11.6331 11.0393 11.8513 11.2502 12.1179 11.2502H13.7336C14.0002 11.2502 14.2184 11.0393 14.2184 10.7814ZM10.3405 12.9689V14.5314C10.3405 14.7893 10.1224 15.0002 9.85579 15.0002H8.24002C7.97342 15.0002 7.75529 14.7893 7.75529 14.5314V12.9689C7.75529 12.7111 7.97342 12.5002 8.24002 12.5002H9.85579C10.1224 12.5002 10.3405 12.7111 10.3405 12.9689ZM6.46268 14.5314V12.9689C6.46268 12.7111 6.24455 12.5002 5.97794 12.5002H4.36217C4.09557 12.5002 3.87744 12.7111 3.87744 12.9689V14.5314C3.87744 14.7893 4.09557 15.0002 4.36217 15.0002H5.97794C6.24455 15.0002 6.46268 14.7893 6.46268 14.5314ZM14.2184 12.9689V14.5314C14.2184 14.7893 14.0002 15.0002 13.7336 15.0002H12.1179C11.8513 15.0002 11.6331 14.7893 11.6331 14.5314V12.9689C11.6331 12.7111 11.8513 12.5002 12.1179 12.5002H13.7336C14.0002 12.5002 14.2184 12.7111 14.2184 12.9689ZM16.1573 6.25V17.8906C16.1573 18.0195 16.0482 18.125 15.9149 18.125H2.18089C2.04758 18.125 1.93852 18.0195 1.93852 17.8906V6.25H16.1573Z" fill="#13243E"/>
</svg>
