<svg width="20" height="21" viewBox="0 0 20 21" fill="none" xmlns="http://www.w3.org/2000/svg">
<path fill-rule="evenodd" clip-rule="evenodd" d="M19.0483 5.31732V19.0673C19.0483 20.1025 18.1798 20.9423 17.1094 20.9423H2.89058C1.82014 20.9423 0.95166 20.1025 0.95166 19.0673V5.31732C0.95166 4.28217 1.82014 3.44232 2.89058 3.44232H4.82951V1.41107C4.82951 1.15326 5.04764 0.942322 5.31424 0.942322H6.93001C7.19661 0.942322 7.41474 1.15326 7.41474 1.41107V3.44232H12.5852V1.41107C12.5852 1.15326 12.8033 0.942322 13.0699 0.942322H14.6857C14.9523 0.942322 15.1704 1.15326 15.1704 1.41107V3.44232H17.1094C18.1798 3.44232 19.0483 4.28217 19.0483 5.31732ZM5.31383 12.1925H6.92961C7.19621 12.1925 7.41434 11.9816 7.41434 11.7238V10.1613C7.41434 9.90345 7.19621 9.69252 6.92961 9.69252H5.31383C5.04723 9.69252 4.8291 9.90345 4.8291 10.1613V11.7238C4.8291 11.9816 5.04723 12.1925 5.31383 12.1925ZM11.2922 10.1613V11.7238C11.2922 11.9816 11.0741 12.1925 10.8075 12.1925H9.19168C8.92508 12.1925 8.70695 11.9816 8.70695 11.7238V10.1613C8.70695 9.90345 8.92508 9.69252 9.19168 9.69252H10.8075C11.0741 9.69252 11.2922 9.90345 11.2922 10.1613ZM15.17 11.7238V10.1613C15.17 9.90345 14.9519 9.69252 14.6853 9.69252H13.0695C12.8029 9.69252 12.5848 9.90345 12.5848 10.1613V11.7238C12.5848 11.9816 12.8029 12.1925 13.0695 12.1925H14.6853C14.9519 12.1925 15.17 11.9816 15.17 11.7238ZM11.2922 13.9113V15.4738C11.2922 15.7316 11.0741 15.9425 10.8075 15.9425H9.19168C8.92508 15.9425 8.70695 15.7316 8.70695 15.4738V13.9113C8.70695 13.6535 8.92508 13.4425 9.19168 13.4425H10.8075C11.0741 13.4425 11.2922 13.6535 11.2922 13.9113ZM7.41434 15.4738V13.9113C7.41434 13.6535 7.19621 13.4425 6.92961 13.4425H5.31383C5.04723 13.4425 4.8291 13.6535 4.8291 13.9113V15.4738C4.8291 15.7316 5.04723 15.9425 5.31383 15.9425H6.92961C7.19621 15.9425 7.41434 15.7316 7.41434 15.4738ZM15.17 13.9113V15.4738C15.17 15.7316 14.9519 15.9425 14.6853 15.9425H13.0695C12.8029 15.9425 12.5848 15.7316 12.5848 15.4738V13.9113C12.5848 13.6535 12.8029 13.4425 13.0695 13.4425H14.6853C14.9519 13.4425 15.17 13.6535 15.17 13.9113ZM17.109 7.19232V18.8329C17.109 18.9619 16.9999 19.0673 16.8666 19.0673H3.13255C2.99924 19.0673 2.89018 18.9619 2.89018 18.8329V7.19232H17.109Z" fill="#112340"/>
</svg>
