<svg width="21" height="21" viewBox="0 0 21 21" fill="none" xmlns="http://www.w3.org/2000/svg">
<path fill-rule="evenodd" clip-rule="evenodd" d="M4.5 0.942322C2.29086 0.942322 0.5 2.73318 0.5 4.94232V16.9423C0.5 19.1515 2.29086 20.9423 4.5 20.9423H16.5C18.7091 20.9423 20.5 19.1515 20.5 16.9423V4.94232C20.5 2.73318 18.7091 0.942322 16.5 0.942322H4.5ZM8.38386 15.9483H8.42495C8.73634 15.9483 9.0326 15.8143 9.23803 15.5796L16.8066 6.92984C17.2002 6.48005 17.1548 5.79672 16.7061 5.40424C16.2563 5.01067 15.574 5.05608 15.1805 5.50479L8.48982 13.1512L6.04625 9.89348C5.68945 9.41666 5.0126 9.31935 4.53253 9.67724C4.05463 10.0351 3.9584 10.7131 4.31629 11.191L7.55997 15.5159C7.75567 15.7764 8.05841 15.9354 8.38386 15.9483Z" fill="#112340"/>
</svg>
