<svg width="21" height="21" viewBox="0 0 21 21" fill="none" xmlns="http://www.w3.org/2000/svg">
<path d="M7.4934 19.7244V16.6576C7.49339 15.8804 8.1586 15.249 8.98256 15.2441H12.008C12.8357 15.2441 13.5066 15.877 13.5066 16.6576V19.7155C13.5066 20.3896 14.0832 20.9374 14.7978 20.9423H16.8619C17.8259 20.9447 18.7513 20.5851 19.4339 19.943C20.1164 19.3009 20.5 18.4291 20.5 17.5198V8.80817C20.5 8.07371 20.1548 7.37703 19.5575 6.90582L12.5452 1.61659C11.3195 0.691444 9.56881 0.72133 8.37936 1.68771L1.51791 6.90582C0.892359 7.36314 0.518476 8.06188 0.5 8.80817V17.511C0.5 19.406 2.12882 20.9423 4.13808 20.9423H6.15504C6.49913 20.9447 6.82999 20.8174 7.07418 20.5887C7.31838 20.3601 7.45571 20.049 7.4557 19.7244H7.4934Z" fill="#112340"/>
</svg>
