<svg width="19" height="15" viewBox="0 0 19 15" fill="none" xmlns="http://www.w3.org/2000/svg">
<mask id="path-1-inside-1_2135_916" fill="white">
<path fill-rule="evenodd" clip-rule="evenodd" d="M3.5 1.94232C3.5 1.39004 3.94772 0.942322 4.5 0.942322H17.5C18.0523 0.942322 18.5 1.39004 18.5 1.94232C18.5 2.49461 18.0523 2.94232 17.5 2.94232H4.5C3.94772 2.94232 3.5 2.49461 3.5 1.94232Z"/>
<path fill-rule="evenodd" clip-rule="evenodd" d="M3.5 7.94232C3.5 7.39004 3.94772 6.94232 4.5 6.94232H17.5C18.0523 6.94232 18.5 7.39004 18.5 7.94232C18.5 8.49461 18.0523 8.94232 17.5 8.94232H4.5C3.94772 8.94232 3.5 8.49461 3.5 7.94232Z"/>
<path fill-rule="evenodd" clip-rule="evenodd" d="M3.5 13.9423C3.5 13.39 3.94772 12.9423 4.5 12.9423H17.5C18.0523 12.9423 18.5 13.39 18.5 13.9423C18.5 14.4946 18.0523 14.9423 17.5 14.9423H4.5C3.94772 14.9423 3.5 14.4946 3.5 13.9423Z"/>
<path d="M2.5 1.94232C2.5 2.49461 2.05228 2.94232 1.5 2.94232C0.947715 2.94232 0.5 2.49461 0.5 1.94232C0.5 1.39004 0.947715 0.942322 1.5 0.942322C2.05228 0.942322 2.5 1.39004 2.5 1.94232Z"/>
<path d="M2.5 7.94232C2.5 8.49461 2.05228 8.94232 1.5 8.94232C0.947715 8.94232 0.5 8.49461 0.5 7.94232C0.5 7.39004 0.947715 6.94232 1.5 6.94232C2.05228 6.94232 2.5 7.39004 2.5 7.94232Z"/>
<path d="M2.5 13.9423C2.5 14.4946 2.05228 14.9423 1.5 14.9423C0.947715 14.9423 0.5 14.4946 0.5 13.9423C0.5 13.39 0.947715 12.9423 1.5 12.9423C2.05228 12.9423 2.5 13.39 2.5 13.9423Z"/>
</mask>
<path fill-rule="evenodd" clip-rule="evenodd" d="M3.5 1.94232C3.5 1.39004 3.94772 0.942322 4.5 0.942322H17.5C18.0523 0.942322 18.5 1.39004 18.5 1.94232C18.5 2.49461 18.0523 2.94232 17.5 2.94232H4.5C3.94772 2.94232 3.5 2.49461 3.5 1.94232Z" fill="#112340"/>
<path fill-rule="evenodd" clip-rule="evenodd" d="M3.5 7.94232C3.5 7.39004 3.94772 6.94232 4.5 6.94232H17.5C18.0523 6.94232 18.5 7.39004 18.5 7.94232C18.5 8.49461 18.0523 8.94232 17.5 8.94232H4.5C3.94772 8.94232 3.5 8.49461 3.5 7.94232Z" fill="#112340"/>
<path fill-rule="evenodd" clip-rule="evenodd" d="M3.5 13.9423C3.5 13.39 3.94772 12.9423 4.5 12.9423H17.5C18.0523 12.9423 18.5 13.39 18.5 13.9423C18.5 14.4946 18.0523 14.9423 17.5 14.9423H4.5C3.94772 14.9423 3.5 14.4946 3.5 13.9423Z" fill="#112340"/>
<path d="M2.5 1.94232C2.5 2.49461 2.05228 2.94232 1.5 2.94232C0.947715 2.94232 0.5 2.49461 0.5 1.94232C0.5 1.39004 0.947715 0.942322 1.5 0.942322C2.05228 0.942322 2.5 1.39004 2.5 1.94232Z" fill="#D6D7E3"/>
<path d="M2.5 7.94232C2.5 8.49461 2.05228 8.94232 1.5 8.94232C0.947715 8.94232 0.5 8.49461 0.5 7.94232C0.5 7.39004 0.947715 6.94232 1.5 6.94232C2.05228 6.94232 2.5 7.39004 2.5 7.94232Z" fill="#D6D7E3"/>
<path d="M2.5 13.9423C2.5 14.4946 2.05228 14.9423 1.5 14.9423C0.947715 14.9423 0.5 14.4946 0.5 13.9423C0.5 13.39 0.947715 12.9423 1.5 12.9423C2.05228 12.9423 2.5 13.39 2.5 13.9423Z" fill="#D6D7E3"/>
<path d="M4.5 -0.0576782C3.39543 -0.0576782 2.5 0.837752 2.5 1.94232H4.5V-0.0576782ZM17.5 -0.0576782H4.5V1.94232H17.5V-0.0576782ZM19.5 1.94232C19.5 0.837753 18.6046 -0.0576782 17.5 -0.0576782V1.94232H19.5ZM17.5 3.94232C18.6046 3.94232 19.5 3.04689 19.5 1.94232H17.5V3.94232ZM4.5 3.94232H17.5V1.94232H4.5V3.94232ZM2.5 1.94232C2.5 3.04689 3.39543 3.94232 4.5 3.94232V1.94232H2.5ZM4.5 5.94232C3.39543 5.94232 2.5 6.83775 2.5 7.94232H4.5V5.94232ZM17.5 5.94232H4.5V7.94232H17.5V5.94232ZM19.5 7.94232C19.5 6.83775 18.6046 5.94232 17.5 5.94232V7.94232H19.5ZM17.5 9.94232C18.6046 9.94232 19.5 9.04689 19.5 7.94232H17.5V9.94232ZM4.5 9.94232H17.5V7.94232H4.5V9.94232ZM2.5 7.94232C2.5 9.04689 3.39543 9.94232 4.5 9.94232V7.94232H2.5ZM4.5 11.9423C3.39543 11.9423 2.5 12.8378 2.5 13.9423H4.5V11.9423ZM17.5 11.9423H4.5V13.9423H17.5V11.9423ZM19.5 13.9423C19.5 12.8378 18.6046 11.9423 17.5 11.9423V13.9423H19.5ZM17.5 15.9423C18.6046 15.9423 19.5 15.0469 19.5 13.9423H17.5V15.9423ZM4.5 15.9423H17.5V13.9423H4.5V15.9423ZM2.5 13.9423C2.5 15.0469 3.39543 15.9423 4.5 15.9423V13.9423H2.5ZM1.5 1.94232V3.94232C2.60457 3.94232 3.5 3.04689 3.5 1.94232H1.5ZM1.5 1.94232H-0.5C-0.5 3.04689 0.39543 3.94232 1.5 3.94232V1.94232ZM1.5 1.94232V-0.0576782C0.39543 -0.0576782 -0.5 0.837752 -0.5 1.94232H1.5ZM1.5 1.94232H3.5C3.5 0.837752 2.60457 -0.0576782 1.5 -0.0576782V1.94232ZM1.5 7.94232V9.94232C2.60457 9.94232 3.5 9.04689 3.5 7.94232H1.5ZM1.5 7.94232H-0.5C-0.5 9.04689 0.39543 9.94232 1.5 9.94232V7.94232ZM1.5 7.94232V5.94232C0.39543 5.94232 -0.5 6.83775 -0.5 7.94232H1.5ZM1.5 7.94232H3.5C3.5 6.83775 2.60457 5.94232 1.5 5.94232V7.94232ZM1.5 13.9423V15.9423C2.60457 15.9423 3.5 15.0469 3.5 13.9423H1.5ZM1.5 13.9423H-0.5C-0.5 15.0469 0.39543 15.9423 1.5 15.9423V13.9423ZM1.5 13.9423V11.9423C0.39543 11.9423 -0.5 12.8378 -0.5 13.9423H1.5ZM1.5 13.9423H3.5C3.5 12.8378 2.60457 11.9423 1.5 11.9423V13.9423Z" fill="#112340" mask="url(#path-1-inside-1_2135_916)"/>
</svg>
