<svg width="20" height="23" viewBox="0 0 20 23" fill="none" xmlns="http://www.w3.org/2000/svg">
<path fill-rule="evenodd" clip-rule="evenodd" d="M10.005 0.940857C10.5573 0.940857 11.005 1.38857 11.005 1.94086V11.9409C11.005 12.4931 10.5573 12.9409 10.005 12.9409C9.45272 12.9409 9.00501 12.4931 9.00501 11.9409V1.94086C9.00501 1.38857 9.45272 0.940857 10.005 0.940857ZM4.342 5.87365C4.73258 6.26411 4.73269 6.89727 4.34223 7.28786C3.22367 8.40679 2.462 9.83226 2.15353 11.384C1.84506 12.9358 2.00364 14.5442 2.60922 16.0059C3.2148 17.4675 4.24018 18.7168 5.55571 19.5957C6.87125 20.4747 8.41787 20.9438 10 20.9438C11.5821 20.9438 13.1288 20.4747 14.4443 19.5957C15.7598 18.7168 16.7852 17.4675 17.3908 16.0059C17.9964 14.5442 18.1549 12.9358 17.8465 11.384C17.538 9.83226 16.7763 8.40679 15.6578 7.28786C15.2673 6.89727 15.2674 6.26411 15.658 5.87365C16.0486 5.48319 16.6818 5.48329 17.0722 5.87388C18.4704 7.27254 19.4225 9.05437 19.8081 10.9941C20.1937 12.9338 19.9955 14.9443 19.2385 16.7714C18.4815 18.5985 17.1998 20.16 15.5554 21.2587C13.9109 22.3574 11.9777 22.9438 10 22.9438C8.02233 22.9438 6.08906 22.3574 4.44464 21.2587C2.80022 20.16 1.51849 18.5985 0.761522 16.7714C0.00454932 14.9443 -0.193675 12.9338 0.191913 10.9941C0.5775 9.05437 1.52958 7.27254 2.92778 5.87388C3.31824 5.48329 3.95141 5.48319 4.342 5.87365Z" fill="#112340"/>
</svg>
