<svg width="20" height="21" viewBox="0 0 20 21" fill="none" xmlns="http://www.w3.org/2000/svg">
<path d="M1 3.94232C1 2.83775 1.89543 1.94232 3 1.94232H6.09091C7.19548 1.94232 8.09091 2.83775 8.09091 3.94232V7.03323C8.09091 8.1378 7.19548 9.03323 6.09091 9.03323H3C1.89543 9.03323 1 8.1378 1 7.03323V3.94232ZM1 14.8514C1 13.7468 1.89543 12.8514 3 12.8514H6.09091C7.19548 12.8514 8.09091 13.7468 8.09091 14.8514V17.9423C8.09091 19.0469 7.19548 19.9423 6.09091 19.9423H3C1.89543 19.9423 1 19.0469 1 17.9423V14.8514ZM11.9091 3.94232C11.9091 2.83775 12.8045 1.94232 13.9091 1.94232H17C18.1046 1.94232 19 2.83775 19 3.94232V7.03323C19 8.1378 18.1046 9.03323 17 9.03323H13.9091C12.8045 9.03323 11.9091 8.1378 11.9091 7.03323V3.94232ZM11.9091 14.8514C11.9091 13.7468 12.8045 12.8514 13.9091 12.8514H17C18.1046 12.8514 19 13.7468 19 14.8514V17.9423C19 19.0469 18.1046 19.9423 17 19.9423H13.9091C12.8045 19.9423 11.9091 19.0469 11.9091 17.9423V14.8514Z" fill="#112340" stroke="#112340" stroke-width="2"/>
</svg>
