<svg width="25" height="25" viewBox="0 0 25 25" fill="none" xmlns="http://www.w3.org/2000/svg">
<path d="M6.92963 12.1925H5.31384C5.04724 12.1925 4.8291 11.9816 4.8291 11.7238V10.1613C4.8291 9.90346 5.04724 9.69252 5.31384 9.69252H6.92963C7.19623 9.69252 7.41431 9.90346 7.41431 10.1613V11.7238C7.41431 11.9816 7.19623 12.1925 6.92963 12.1925Z" fill="#112340"/>
<path d="M11.2922 11.7238V10.1613C11.2922 9.90346 11.074 9.69252 10.8074 9.69252H9.19171C8.92511 9.69252 8.70697 9.90346 8.70697 10.1613V11.7238C8.70697 11.9816 8.92511 12.1925 9.19171 12.1925H10.8074C11.074 12.1925 11.2922 11.9816 11.2922 11.7238Z" fill="#112340"/>
<path d="M15.17 10.1613V11.7238C15.17 11.9816 14.9519 12.1925 14.6853 12.1925H13.0695C12.8029 12.1925 12.5848 11.9816 12.5848 11.7238V10.1613C12.5848 9.90346 12.8029 9.69252 13.0695 9.69252H14.6853C14.9519 9.69252 15.17 9.90346 15.17 10.1613Z" fill="#112340"/>
<path d="M11.2922 15.4738V13.9113C11.2922 13.6535 11.074 13.4425 10.8074 13.4425H9.19171C8.92511 13.4425 8.70697 13.6535 8.70697 13.9113V15.4738C8.70697 15.7316 8.92511 15.9425 9.19171 15.9425H10.8074C11.074 15.9425 11.2922 15.7316 11.2922 15.4738Z" fill="#112340"/>
<path d="M7.41431 13.9113V15.4738C7.41431 15.7316 7.19623 15.9425 6.92963 15.9425H5.31384C5.04724 15.9425 4.8291 15.7316 4.8291 15.4738V13.9113C4.8291 13.6535 5.04724 13.4425 5.31384 13.4425H6.92963C7.19623 13.4425 7.41431 13.6535 7.41431 13.9113Z" fill="#112340"/>
<path fill-rule="evenodd" clip-rule="evenodd" d="M19.0483 12.0157V5.31732C19.0483 4.28217 18.1798 3.44232 17.1094 3.44232H15.1704V1.41107C15.1704 1.15326 14.9523 0.942322 14.6857 0.942322H13.0699C12.8033 0.942322 12.5852 1.15326 12.5852 1.41107V3.44232H7.41473V1.41107C7.41473 1.15326 7.19659 0.942322 6.92999 0.942322H5.31421C5.04761 0.942322 4.82953 1.15326 4.82953 1.41107V3.44232H2.89056C1.82013 3.44232 0.95166 4.28217 0.95166 5.31732V19.0673C0.95166 20.1025 1.82013 20.9423 2.89056 20.9423H12.0451C12.0508 20.9557 12.0565 20.9692 12.0623 20.9826C12.4044 21.7751 12.8664 22.462 13.4482 23.0433C14.0295 23.6251 14.7164 24.0871 15.509 24.4292C16.3015 24.7713 17.1483 24.9423 18.0492 24.9423C18.9501 24.9423 19.7969 24.7713 20.5894 24.4292C21.382 24.0871 22.0689 23.6251 22.6502 23.0433C23.232 22.462 23.694 21.7751 24.0361 20.9826C24.3782 20.19 24.5492 19.3433 24.5492 18.4423C24.5492 17.5414 24.3782 16.6946 24.0361 15.9021C23.694 15.1095 23.232 14.4226 22.6502 13.8413C22.0689 13.2595 21.382 12.7975 20.5894 12.4555C20.0967 12.2428 19.5829 12.0962 19.0483 12.0157ZM17.1089 12.0072V7.19232H2.8902V18.8329C2.8902 18.9619 2.99927 19.0673 3.13257 19.0673H11.5774C11.5586 18.862 11.5492 18.6536 11.5492 18.4423C11.5492 17.5414 11.7202 16.6946 12.0623 15.9021C12.4044 15.1095 12.8664 14.4226 13.4482 13.8413C14.0295 13.2595 14.7164 12.7975 15.509 12.4555C16.0198 12.235 16.5531 12.0855 17.1089 12.0072ZM21.2307 16.0474L19.862 17.4333L19.1099 16.6804L20.495 15.2954C20.3127 15.181 20.119 15.0953 19.9137 15.0384C19.7085 14.9815 19.4975 14.953 19.2807 14.953C18.6195 14.953 18.0637 15.1782 17.6132 15.6287C17.1628 16.0792 16.9376 16.6292 16.9376 17.2789C16.9376 17.4158 16.949 17.5668 16.972 17.7321C16.9944 17.898 17.0399 18.0493 17.1083 18.1862L14.7651 20.5294C14.6398 20.6547 14.5771 20.8085 14.5771 20.9908C14.5771 21.1736 14.6398 21.3277 14.7651 21.453L15.073 21.7773C15.1984 21.9141 15.3524 21.9826 15.5352 21.9826C15.7175 21.9826 15.8713 21.9199 15.9966 21.7945L18.3743 19.4341C18.5112 19.5025 18.6565 19.5482 18.8103 19.5712C18.9641 19.5942 19.1152 19.6057 19.2635 19.6057C19.9137 19.6057 20.4641 19.3775 20.9146 18.921C21.3644 18.465 21.5894 17.9119 21.5894 17.2617C21.5894 17.034 21.561 16.8175 21.504 16.6123C21.4471 16.407 21.356 16.2187 21.2307 16.0474Z" fill="#112340"/>
</svg>
