<svg width="20" height="21" viewBox="0 0 20 21" fill="none" xmlns="http://www.w3.org/2000/svg">
<path fill-rule="evenodd" clip-rule="evenodd" d="M0 10.9423C0 5.41813 4.47581 0.942322 10 0.942322C15.5242 0.942322 20 5.41813 20 10.9423C20 16.4665 15.5242 20.9423 10 20.9423C4.47581 20.9423 0 16.4665 0 10.9423ZM15.3226 12.5552C15.5887 12.5552 15.8065 12.3375 15.8065 12.0714V9.81329C15.8065 9.54716 15.5887 9.32942 15.3226 9.32942H11.6129V5.61974C11.6129 5.35361 11.3952 5.13587 11.129 5.13587H8.87097C8.60484 5.13587 8.3871 5.35361 8.3871 5.61974V9.32942H4.67742C4.41129 9.32942 4.19355 9.54716 4.19355 9.81329V12.0714C4.19355 12.3375 4.41129 12.5552 4.67742 12.5552H8.3871V16.2649C8.3871 16.531 8.60484 16.7488 8.87097 16.7488H11.129C11.3952 16.7488 11.6129 16.531 11.6129 16.2649V12.5552H15.3226Z" fill="#112340"/>
</svg>
