<svg width="18" height="19" viewBox="0 0 18 19" fill="none" xmlns="http://www.w3.org/2000/svg">
<path d="M16 0.942322H2C0.9 0.942322 0 1.84232 0 2.94232V16.9423C0 18.0423 0.9 18.9423 2 18.9423H16C17.1 18.9423 18 18.0423 18 16.9423V2.94232C18 1.84232 17.1 0.942322 16 0.942322ZM5 14.9423C4.45 14.9423 4 14.4923 4 13.9423V8.94232C4 8.39232 4.45 7.94232 5 7.94232C5.55 7.94232 6 8.39232 6 8.94232V13.9423C6 14.4923 5.55 14.9423 5 14.9423ZM9 14.9423C8.45 14.9423 8 14.4923 8 13.9423V5.94232C8 5.39232 8.45 4.94232 9 4.94232C9.55 4.94232 10 5.39232 10 5.94232V13.9423C10 14.4923 9.55 14.9423 9 14.9423ZM13 14.9423C12.45 14.9423 12 14.4923 12 13.9423V11.9423C12 11.3923 12.45 10.9423 13 10.9423C13.55 10.9423 14 11.3923 14 11.9423V13.9423C14 14.4923 13.55 14.9423 13 14.9423Z" fill="#112340"/>
</svg>
