<svg width="23" height="21" viewBox="0 0 23 21" fill="none" xmlns="http://www.w3.org/2000/svg">
<path d="M1.6528 20.4434C1.01612 20.4434 0.5 19.9273 0.5 19.2906V1.71042C0.5 1.07374 1.01613 0.557617 1.6528 0.557617H10.7311C11.3678 0.557617 11.8839 1.07374 11.8839 1.71042V4.78493H21.3472C21.9839 4.78493 22.5 5.30105 22.5 5.93773V19.2906C22.5 19.9273 21.9839 20.4434 21.3472 20.4434H1.6528ZM2.85401 18.0894H4.72731V16.2161H2.85401V18.0894ZM2.85401 13.6707H4.72731V11.7974H2.85401V13.6707ZM2.85401 9.2036H4.72731V7.33031H2.85401V9.2036ZM2.85401 4.78493H4.72731V2.91163H2.85401V4.78493ZM7.65772 18.0894H9.53102V16.2161H7.65772V18.0894ZM7.65772 13.6707H9.53102V11.7974H7.65772V13.6707ZM7.65772 9.2036H9.53102V7.33031H7.65772V9.2036ZM7.65772 4.78493H9.53102V2.91163H7.65772V4.78493ZM11.8839 18.0894H20.146V7.13779H11.8839V9.2036H13.7572V11.5576H11.8839V13.6707H13.7572V16.0247H11.8839V18.0894ZM16.0155 11.5576V9.2036H18.3684V11.5576H16.0155ZM16.0155 16.0247V13.6707H18.3684V16.0247H16.0155Z" fill="#112340"/>
</svg>
