<svg width="20" height="22" viewBox="0 0 20 22" fill="none" xmlns="http://www.w3.org/2000/svg">
<path d="M12.0016 0.165802H8.00156C7.45156 0.165802 7.00156 0.615802 7.00156 1.1658C7.00156 1.7158 7.45156 2.1658 8.00156 2.1658H12.0016C12.5516 2.1658 13.0016 1.7158 13.0016 1.1658C13.0016 0.615802 12.5516 0.165802 12.0016 0.165802ZM10.0016 13.1658C10.5516 13.1658 11.0016 12.7158 11.0016 12.1658V8.1658C11.0016 7.6158 10.5516 7.1658 10.0016 7.1658C9.45156 7.1658 9.00156 7.6158 9.00156 8.1658V12.1658C9.00156 12.7158 9.45156 13.1658 10.0016 13.1658ZM17.0316 6.5558L17.7816 5.8058C18.1616 5.4258 18.1716 4.7958 17.7816 4.4058L17.7716 4.3958C17.3816 4.0058 16.7616 4.0158 16.3716 4.3958L15.6216 5.1458C14.0716 3.9058 12.1216 3.1658 10.0016 3.1658C5.20156 3.1658 1.12157 7.1258 1.00157 11.9258C0.871565 17.0058 4.94157 21.1658 10.0016 21.1658C14.9816 21.1658 19.0016 17.1358 19.0016 12.1658C19.0016 10.0458 18.2616 8.0958 17.0316 6.5558ZM10.0016 19.1658C6.13157 19.1658 3.00156 16.0358 3.00156 12.1658C3.00156 8.2958 6.13157 5.1658 10.0016 5.1658C13.8716 5.1658 17.0016 8.2958 17.0016 12.1658C17.0016 16.0358 13.8716 19.1658 10.0016 19.1658Z" fill="#112340"/>
</svg>
