<svg width="30" height="21" viewBox="0 0 30 21" fill="none" xmlns="http://www.w3.org/2000/svg">
<path d="M9.55516 10.0656C8.90154 10.7453 7.99802 11.1658 6.99993 11.1658C5.00557 11.1658 3.38882 9.48687 3.38882 7.4158C3.38882 5.34473 5.00557 3.6658 6.99993 3.6658C7.43097 3.6658 7.84437 3.74423 8.22763 3.88809C8.0988 4.3802 8.0222 4.89343 8.00409 5.42151C7.70391 5.25819 7.36231 5.1658 6.99993 5.1658C5.80331 5.1658 4.83326 6.17316 4.83326 7.4158C4.83326 8.65844 5.80331 9.6658 6.99993 9.6658C7.70475 9.6658 8.33096 9.31632 8.72664 8.77512C8.95573 9.23644 9.23421 9.6689 9.55516 10.0656Z" fill="#112340"/>
<path d="M21.7722 3.88811C22.1555 3.74424 22.5689 3.6658 22.9999 3.6658C24.9943 3.6658 26.611 5.34473 26.611 7.4158C26.611 9.48687 24.9943 11.1658 22.9999 11.1658C22.0018 11.1658 21.0983 10.7453 20.4447 10.0656C20.7656 9.66887 21.0441 9.2364 21.2732 8.77508C21.6689 9.3163 22.2951 9.6658 22.9999 9.6658C24.1965 9.6658 25.1666 8.65844 25.1666 7.4158C25.1666 6.17316 24.1965 5.1658 22.9999 5.1658C22.6375 5.1658 22.2959 5.2582 21.9957 5.42155C21.9776 4.89346 21.901 4.38022 21.7722 3.88811Z" fill="#112340"/>
<path d="M6.10102 12.6658C6.08402 12.6825 6.0671 12.6992 6.05025 12.7161C5.61389 13.1524 5.24108 13.6405 4.9378 14.1658H4.11111C3.53648 14.1658 2.98538 14.4029 2.57905 14.8248C2.17272 15.2468 1.94444 15.8191 1.94444 16.4158V17.9158C1.94444 18.33 1.62109 18.6658 1.22222 18.6658C0.82335 18.6658 0.5 18.33 0.5 17.9158V16.4158C0.5 15.4212 0.880455 14.4674 1.55767 13.7642C2.23488 13.0609 3.15338 12.6658 4.11111 12.6658H6.10102Z" fill="#112340"/>
<path d="M25.0622 14.1658C24.7589 13.6405 24.3861 13.1524 23.9497 12.7161C23.9329 12.6992 23.916 12.6825 23.899 12.6658H25.8889C26.8466 12.6658 27.7651 13.0609 28.4423 13.7642C29.1195 14.4674 29.5 15.4212 29.5 16.4158V17.9158C29.5 18.33 29.1767 18.6658 28.7778 18.6658C28.3789 18.6658 28.0556 18.33 28.0556 17.9158V16.4158C28.0556 15.8191 27.8273 15.2468 27.421 14.8248C27.0146 14.4029 26.4635 14.1658 25.8889 14.1658H25.0622Z" fill="#112340"/>
<path fill-rule="evenodd" clip-rule="evenodd" d="M9.9999 5.6658C9.9999 2.90438 12.2385 0.665802 14.9999 0.665802C17.7613 0.665802 19.9999 2.90438 19.9999 5.6658C19.9999 8.42723 17.7613 10.6658 14.9999 10.6658C12.2385 10.6658 9.9999 8.42723 9.9999 5.6658ZM14.9999 2.6658C13.343 2.6658 11.9999 4.00895 11.9999 5.6658C11.9999 7.32266 13.343 8.6658 14.9999 8.6658C16.6568 8.6658 17.9999 7.32266 17.9999 5.6658C17.9999 4.00895 16.6568 2.6658 14.9999 2.6658Z" fill="#112340"/>
<path d="M7.46447 14.1303C8.40215 13.1926 9.67392 12.6658 11 12.6658H14L14.5 14.6658L14 20.6658H7C6.44772 20.6658 6 20.2181 6 19.6658V17.6658C6 16.3397 6.52678 15.068 7.46447 14.1303Z" fill="#112340"/>
<path d="M17 20.6658H23C23.5523 20.6658 24 20.2181 24 19.6658V17.6658C24 16.3397 23.4732 15.068 22.5355 14.1303C21.5978 13.1926 20.3261 12.6658 19 12.6658H17L16.5 14.6658L17 20.6658Z" fill="#112340"/>
</svg>
