<svg width="20" height="21" viewBox="0 0 20 21" fill="none" xmlns="http://www.w3.org/2000/svg">
<path fill-rule="evenodd" clip-rule="evenodd" d="M9.40568 0.861533C9.75888 0.600558 10.241 0.600558 10.5942 0.861533L19.1205 7.16153C19.3757 7.35008 19.5263 7.64853 19.5263 7.9658V17.8658C19.5263 18.6254 19.2081 19.3429 18.6601 19.8636C18.1137 20.3826 17.3832 20.6658 16.6315 20.6658H3.36837C2.61672 20.6658 1.88618 20.3826 1.33984 19.8636C0.791754 19.3429 0.473633 18.6254 0.473633 17.8658V7.9658C0.473633 7.64853 0.624194 7.35008 0.879367 7.16153L9.40568 0.861533ZM8.15774 18.6658H11.8419V11.6658H8.15774V18.6658ZM13.8419 18.6658V10.6658C13.8419 10.1135 13.3942 9.6658 12.8419 9.6658H7.15774C6.60545 9.6658 6.15774 10.1135 6.15774 10.6658V18.6658H3.36837C3.11499 18.6658 2.88166 18.5697 2.71734 18.4136C2.55476 18.2591 2.47363 18.0609 2.47363 17.8658V8.47028L9.99995 2.90917L17.5263 8.47028V17.8658C17.5263 18.0609 17.4451 18.2591 17.2826 18.4136C17.1182 18.5697 16.8849 18.6658 16.6315 18.6658H13.8419Z" fill="#112340"/>
</svg>
