<svg width="19" height="23" viewBox="0 0 19 23" fill="none" xmlns="http://www.w3.org/2000/svg">
<path fill-rule="evenodd" clip-rule="evenodd" d="M16 2.49951C16.2761 2.49951 16.5 2.72337 16.5 2.99951V3.99951C16.5 4.27565 16.2761 4.49951 16 4.49951H3C2.72386 4.49951 2.5 4.27565 2.5 3.99951L2.5 2.99951C2.5 2.72337 2.72386 2.49951 3 2.49951H16ZM0.5 2.49951C0.5 1.39494 1.39543 0.499512 2.5 0.499512H16.5C17.6046 0.499512 18.5 1.39494 18.5 2.49951V4.49951C18.5 5.60408 17.6046 6.49951 16.5 6.49951H2.5C1.39543 6.49951 0.5 5.60408 0.5 4.49951V2.49951ZM16 10.4995C16.2761 10.4995 16.5 10.7234 16.5 10.9995V11.9995C16.5 12.2757 16.2761 12.4995 16 12.4995H10C9.72386 12.4995 9.5 12.2757 9.5 11.9995V10.9995C9.5 10.7234 9.72386 10.4995 10 10.4995H16ZM7.5 10.4995C7.5 9.39494 8.39543 8.49951 9.5 8.49951H16.5C17.6046 8.49951 18.5 9.39494 18.5 10.4995V12.4995C18.5 13.6041 17.6046 14.4995 16.5 14.4995H9.5C8.39543 14.4995 7.5 13.6041 7.5 12.4995V10.4995ZM16.5 18.9995C16.5 18.7234 16.2761 18.4995 16 18.4995H10C9.72386 18.4995 9.5 18.7234 9.5 18.9995V19.9995C9.5 20.2757 9.72386 20.4995 10 20.4995H16C16.2761 20.4995 16.5 20.2757 16.5 19.9995V18.9995ZM9.5 16.4995C8.39543 16.4995 7.5 17.3949 7.5 18.4995V20.4995C7.5 21.6041 8.39543 22.4995 9.5 22.4995H16.5C17.6046 22.4995 18.5 21.6041 18.5 20.4995V18.4995C18.5 17.3949 17.6046 16.4995 16.5 16.4995H9.5ZM3.5 8.49951C3.5 7.94723 3.05228 7.49951 2.5 7.49951C1.94772 7.49951 1.5 7.94723 1.5 8.49951V19.4995C1.5 20.0518 1.94772 20.4995 2.5 20.4995H5.5C6.05228 20.4995 6.5 20.0518 6.5 19.4995C6.5 18.9472 6.05228 18.4995 5.5 18.4995H3.5V12.4995H5.5C6.05228 12.4995 6.5 12.0518 6.5 11.4995C6.5 10.9472 6.05228 10.4995 5.5 10.4995H3.5V8.49951Z" fill="#112340"/>
</svg>
