<svg width="18" height="23" viewBox="0 0 18 23" fill="none" xmlns="http://www.w3.org/2000/svg">
<path d="M9 11.5286C9.59447 11.5286 10.0913 11.3245 10.4906 10.9163C10.889 10.5072 11.0882 10.0148 11.0882 9.43903C11.0882 8.84546 10.8841 8.34903 10.4759 7.94975C10.0677 7.55047 9.57575 7.35083 9 7.35083C8.40554 7.35083 7.90867 7.55492 7.50939 7.96312C7.111 8.3722 6.9118 8.86417 6.9118 9.43903C6.9118 10.0335 7.1159 10.5304 7.52409 10.9296C7.93228 11.3289 8.42426 11.5286 9 11.5286ZM9 20.1902C11.1907 18.2776 12.8663 16.3698 14.0267 14.467C15.1871 12.5633 15.7673 10.9617 15.7673 9.66229C15.7673 7.56428 15.1176 5.87447 13.8181 4.59285C12.5187 3.31212 10.9126 2.67176 9 2.67176C7.08738 2.67176 5.48134 3.31212 4.1819 4.59285C2.88245 5.87447 2.23273 7.56428 2.23273 9.66229C2.23273 10.9439 2.81294 12.5406 3.97334 14.4523C5.13375 16.3649 6.80931 18.2776 9 20.1902ZM9 22.2797C8.81462 22.2797 8.64306 22.2561 8.48531 22.2089C8.32755 22.1625 8.17426 22.0837 8.02542 21.9723C5.40692 19.54 3.46177 17.2936 2.18995 15.2331C0.918135 13.1716 0.282227 11.3147 0.282227 9.66229C0.282227 6.91456 1.15521 4.73768 2.90117 3.13164C4.64624 1.52472 6.67918 0.721252 9 0.721252C11.3208 0.721252 13.3538 1.52472 15.0988 3.13164C16.8448 4.73768 17.7178 6.91456 17.7178 9.66229C17.7178 11.3147 17.0819 13.1716 15.8101 15.2331C14.5382 17.2936 12.5931 19.54 9.97459 21.9723C9.86318 22.0837 9.71479 22.1625 9.52941 22.2089C9.34403 22.2561 9.16756 22.2797 9 22.2797Z" fill="#112340"/>
</svg>
