<svg width="21" height="23" viewBox="0 0 21 23" fill="none" xmlns="http://www.w3.org/2000/svg">
<path fill-rule="evenodd" clip-rule="evenodd" d="M10.505 0.664337C11.0573 0.664337 11.505 1.11205 11.505 1.66434V11.6643C11.505 12.2166 11.0573 12.6643 10.505 12.6643C9.95272 12.6643 9.50501 12.2166 9.50501 11.6643V1.66434C9.50501 1.11205 9.95272 0.664337 10.505 0.664337ZM4.842 5.59713C5.23258 5.98759 5.23269 6.62076 4.84223 7.01134C3.72367 8.13027 2.962 9.55574 2.65353 11.1075C2.34506 12.6593 2.50364 14.2677 3.10922 15.7293C3.7148 17.191 4.74018 18.4403 6.05571 19.3192C7.37125 20.1981 8.91787 20.6673 10.5 20.6673C12.0821 20.6673 13.6288 20.1981 14.9443 19.3192C16.2598 18.4403 17.2852 17.191 17.8908 15.7293C18.4964 14.2677 18.6549 12.6593 18.3465 11.1075C18.038 9.55574 17.2763 8.13027 16.1578 7.01134C15.7673 6.62076 15.7674 5.98759 16.158 5.59713C16.5486 5.20667 17.1818 5.20677 17.5722 5.59736C18.9704 6.99602 19.9225 8.77785 20.3081 10.7176C20.6937 12.6573 20.4955 14.6678 19.7385 16.4949C18.9815 18.3219 17.6998 19.8835 16.0554 20.9822C14.4109 22.0809 12.4777 22.6673 10.5 22.6673C8.52233 22.6673 6.58906 22.0809 4.94464 20.9822C3.30022 19.8835 2.01849 18.3219 1.26152 16.4949C0.504549 14.6678 0.306325 12.6573 0.691913 10.7176C1.0775 8.77785 2.02958 6.99602 3.42778 5.59736C3.81824 5.20677 4.45141 5.20667 4.842 5.59713Z" fill="#112340"/>
</svg>
