<svg width="21" height="23" viewBox="0 0 21 23" fill="none" xmlns="http://www.w3.org/2000/svg">
<path d="M10.2084 10.9163C9.80911 11.3245 9.31224 11.5286 8.71778 11.5286C8.14203 11.5286 7.65006 11.3289 7.24186 10.9296C6.83367 10.5304 6.62957 10.0335 6.62957 9.43903C6.62957 8.86417 6.82877 8.3722 7.22716 7.96312C7.62644 7.55492 8.12331 7.35083 8.71778 7.35083C9.29353 7.35083 9.7855 7.55047 10.1937 7.94975C10.6019 8.34903 10.806 8.84546 10.806 9.43903C10.806 10.0148 10.6068 10.5072 10.2084 10.9163Z" fill="#112340"/>
<path d="M11 18.0034C10.3142 18.7316 9.55349 19.4606 8.71778 20.1902C6.52708 18.2776 4.85153 16.3649 3.69112 14.4523C2.53071 12.5406 1.9505 10.9439 1.9505 9.66229C1.9505 7.56428 2.60023 5.87447 3.89967 4.59285C5.19912 3.31212 6.80515 2.67176 8.71778 2.67176C10.6304 2.67176 12.2364 3.31212 13.5359 4.59285C14.6957 5.73673 15.3379 7.20578 15.4625 9H17.4181C17.287 6.56253 16.4199 4.60641 14.8166 3.13164C13.0715 1.52472 11.0386 0.721252 8.71778 0.721252C6.39696 0.721252 4.36401 1.52472 2.61894 3.13164C0.872981 4.73768 0 6.91456 0 9.66229C0 11.3147 0.635908 13.1716 1.90772 15.2331C3.17954 17.2936 5.1247 19.54 7.74319 21.9723C7.89203 22.0837 8.04533 22.1625 8.20308 22.2089C8.36083 22.2561 8.5324 22.2797 8.71778 22.2797C8.88533 22.2797 9.0618 22.2561 9.24718 22.2089C9.43256 22.1625 9.58095 22.0837 9.69236 21.9723C10.7944 20.9486 11.7772 19.9578 12.6407 19H11.9091C11.4081 19 11.0017 18.5541 11 18.0034Z" fill="#112340"/>
<path fill-rule="evenodd" clip-rule="evenodd" d="M15 11C15 10.4477 15.4477 10 16 10H20C20.5523 10 21 10.4477 21 11C21 11.5523 20.5523 12 20 12H16C15.4477 12 15 11.5523 15 11Z" fill="#112340"/>
<path fill-rule="evenodd" clip-rule="evenodd" d="M15 14C15 13.4477 15.4477 13 16 13H20C20.5523 13 21 13.4477 21 14C21 14.5523 20.5523 15 20 15H16C15.4477 15 15 14.5523 15 14Z" fill="#112340"/>
<path fill-rule="evenodd" clip-rule="evenodd" d="M15 17C15 16.4477 15.4477 16 16 16H20C20.5523 16 21 16.4477 21 17C21 17.5523 20.5523 18 20 18H16C15.4477 18 15 17.5523 15 17Z" fill="#112340"/>
<path d="M14 11C14 11.5523 13.5523 12 13 12C12.4477 12 12 11.5523 12 11C12 10.4477 12.4477 10 13 10C13.5523 10 14 10.4477 14 11Z" fill="#112340"/>
<path d="M14 14C14 14.5523 13.5523 15 13 15C12.4477 15 12 14.5523 12 14C12 13.4477 12.4477 13 13 13C13.5523 13 14 13.4477 14 14Z" fill="#112340"/>
<path d="M14 17C14 17.5523 13.5523 18 13 18C12.4477 18 12 17.5523 12 17C12 16.4477 12.4477 16 13 16C13.5523 16 14 16.4477 14 17Z" fill="#112340"/>
</svg>
