<svg width="28" height="21" viewBox="0 0 28 21" fill="none" xmlns="http://www.w3.org/2000/svg">
<path d="M12.0912 5.02328C12.13 5.0066 12.174 5.0066 12.2128 5.02328L13.9998 5.79208L15.7869 5.02327C15.8257 5.0066 15.8697 5.0066 15.9084 5.02327C15.9639 5.04715 15.9998 5.10122 15.9998 5.16097L15.9998 7.01488C15.9998 7.07464 15.9639 7.12871 15.9084 7.15258L14.0606 7.94754C14.0218 7.96421 13.9778 7.96421 13.939 7.94754L12.0912 7.15258C12.0357 7.12871 11.9998 7.07464 11.9998 7.01488V5.16098C11.9998 5.10122 12.0357 5.04715 12.0912 5.02328Z" fill="#112340"/>
<path d="M6.99695 2.82163C7.03571 2.80495 7.07976 2.80495 7.11853 2.82163L8.90559 3.59044L10.6927 2.82163C10.7314 2.80495 10.7755 2.80495 10.8142 2.82163C10.8697 2.8455 10.9056 2.89957 10.9056 2.95933L10.9056 4.81324C10.9056 4.87299 10.8697 4.92706 10.8142 4.95093L8.96636 5.74589C8.9276 5.76257 8.88356 5.76257 8.84479 5.74589L6.99695 4.95094C6.94146 4.92706 6.90558 4.87299 6.90558 4.81324V2.95933C6.90558 2.89957 6.94146 2.8455 6.99695 2.82163Z" fill="#112340"/>
<path d="M17.2943 2.82163C17.3331 2.80495 17.3771 2.80495 17.4159 2.82163L19.203 3.59044L20.99 2.82163C21.0288 2.80495 21.0728 2.80495 21.1116 2.82163C21.1671 2.8455 21.2029 2.89957 21.2029 2.95933V4.81324C21.2029 4.87299 21.1671 4.92706 21.1116 4.95093L19.2637 5.74589C19.225 5.76257 19.1809 5.76257 19.1422 5.74589L17.2943 4.95094C17.2388 4.92706 17.2029 4.87299 17.2029 4.81324V2.95933C17.2029 2.89957 17.2388 2.8455 17.2943 2.82163Z" fill="#112340"/>
<path d="M12.0912 0.678311C12.13 0.661632 12.174 0.661632 12.2128 0.678311L13.9998 1.44712L15.7869 0.678309C15.8257 0.661635 15.8697 0.661635 15.9084 0.678309C15.9639 0.702181 15.9998 0.756253 15.9998 0.816008L15.9998 2.66992C15.9998 2.72967 15.9639 2.78374 15.9084 2.80761L14.0606 3.60257C14.0218 3.61925 13.9778 3.61925 13.939 3.60257L12.0912 2.80762C12.0357 2.78374 11.9998 2.72967 11.9998 2.66992V0.816009C11.9998 0.756254 12.0357 0.702183 12.0912 0.678311Z" fill="#112340"/>
<path fill-rule="evenodd" clip-rule="evenodd" d="M3.96149 3.17601C4.6218 2.89191 5.36061 3.36938 5.36102 4.08047C5.36125 4.47336 5.12546 4.829 4.76064 4.986L4.35825 5.15918L13.9999 9.30709L23.6416 5.15917L23.252 4.98794C22.8918 4.82961 22.6597 4.47683 22.6597 4.08757C22.6597 3.37744 23.3975 2.90038 24.0569 3.18407L26.5442 4.25416C26.9089 4.41105 27.1447 4.76644 27.1447 5.15917L27.1447 14.4538C27.1447 14.8465 26.9089 15.2019 26.5442 15.3588L14.3994 20.5836C14.1446 20.6932 13.8552 20.6932 13.6004 20.5836L1.45561 15.3588C1.09091 15.2019 0.855103 14.8465 0.855103 14.4538V5.15918C0.855103 4.76645 1.09091 4.41107 1.4556 4.25417L3.96149 3.17601ZM25.1447 6.66626L14.9999 11.0306L14.0204 11.4351L12.9999 11.0306L2.8551 6.66627V13.8071L12.9999 18.1715L12.9999 13.8757C12.9999 13.3305 13.4476 12.8885 13.9999 12.8885C14.5522 12.8885 14.9999 13.3305 14.9999 13.8757L14.9999 18.1715L25.1447 13.8071L25.1447 6.66626Z" fill="#112340"/>
</svg>
