<svg width="16" height="23" viewBox="0 0 16 23" fill="none" xmlns="http://www.w3.org/2000/svg">
<path fill-rule="evenodd" clip-rule="evenodd" d="M7.50612 0.750251C7.76243 0.637653 8.05421 0.637652 8.31052 0.75025L14.6504 3.53536C15.0137 3.69494 15.2482 4.05416 15.2482 4.45092L15.2476 18.8808C15.2475 19.2775 15.013 19.6366 14.6498 19.7962L8.30987 22.5814C8.05356 22.694 7.76178 22.694 7.50546 22.5814L1.16555 19.7962C0.802254 19.6366 0.567692 19.2773 0.567749 18.8805L0.568403 4.45093C0.568403 4.05418 0.802956 3.69496 1.1662 3.53538L7.50612 0.750251ZM2.56822 15.6022L2.56784 18.2278L6.90767 20.1343V19.3386C6.90767 18.7863 7.35538 18.3386 7.90767 18.3386C8.45995 18.3386 8.90767 18.7863 8.90767 19.3386V20.1343L13.2477 18.2277L13.2481 15.6024L8.31056 17.7714C8.05425 17.884 7.76247 17.884 7.50615 17.7714L2.56822 15.6022ZM13.2483 13.4178L13.2483 10.7924L8.31053 12.9615C8.05421 13.0741 7.76243 13.0741 7.50612 12.9615L2.56842 10.7924L2.56844 13.4178L6.90836 15.3244V14.5287C6.90836 13.9764 7.35607 13.5287 7.90836 13.5287C8.46064 13.5287 8.90836 13.9764 8.90836 14.5287V15.3243L13.2483 13.4178ZM2.56841 8.60791L6.90832 10.5144V9.71875C6.90832 9.16646 7.35603 8.71875 7.90832 8.71875C8.4606 8.71875 8.90832 9.16646 8.90832 9.71875V10.5144L13.2482 8.60789V5.98246L8.31054 8.15163C8.05423 8.26423 7.76245 8.26423 7.50613 8.15163L2.5684 5.98248L2.56841 8.60791ZM4.05471 4.45094L7.90833 6.14384L11.7619 4.45093L7.90832 2.75804L4.05471 4.45094Z" fill="#112340"/>
</svg>
