<svg width="22" height="23" viewBox="0 0 22 23" fill="none" xmlns="http://www.w3.org/2000/svg">
<path fill-rule="evenodd" clip-rule="evenodd" d="M10.5276 2.64232C10.6634 2.61242 10.8276 2.59999 10.9846 2.59999C11.1434 2.59999 11.3155 2.6127 11.4588 2.64419L11.9706 5.07386C12.0364 5.38609 12.2515 5.64598 12.546 5.76883L14.0593 6.40015C14.3539 6.52305 14.6901 6.49307 14.9584 6.31997L17.0521 4.96872C17.1693 5.04365 17.2942 5.15097 17.4052 5.26194C17.5175 5.37426 17.6302 5.50494 17.7093 5.62855L16.3531 7.70845C16.1784 7.97648 16.1471 8.31348 16.2695 8.60908L16.8911 10.1095C17.013 10.4036 17.2714 10.6192 17.5826 10.6862L20.0186 11.2112C20.0485 11.3471 20.0609 11.5113 20.0609 11.6683C20.0609 11.8271 20.0482 11.9992 20.0167 12.1425L17.587 12.6543C17.274 12.7202 17.0136 12.9364 16.8911 13.2319L16.2695 14.7323C16.1477 15.0264 16.178 15.3616 16.3506 15.6291L17.7019 17.7229C17.627 17.8401 17.5196 17.965 17.4087 18.076C17.2964 18.1883 17.1657 18.301 17.0421 18.3801L14.9622 17.0239C14.6941 16.8491 14.3572 16.8179 14.0615 16.9403L12.5612 17.5619C12.2671 17.6837 12.0515 17.9421 11.9844 18.2533L11.4594 20.6893C11.3236 20.7192 11.1594 20.7316 11.0024 20.7316C10.8436 20.7316 10.6715 20.7189 10.5282 20.6874L10.0164 18.2578C9.95045 17.9447 9.7343 17.6843 9.4387 17.5618L7.93831 16.9403C7.6442 16.8185 7.30901 16.8488 7.04153 17.0215L4.94779 18.3727C4.83057 18.2978 4.70567 18.1905 4.5947 18.0795C4.48238 17.9672 4.36968 17.8365 4.2906 17.7129L5.64676 15.633C5.82152 15.365 5.85279 15.028 5.73036 14.7324L5.10889 13.232C4.98707 12.9379 4.72862 12.7223 4.41741 12.6552L1.98144 12.1302C1.95153 11.9943 1.9391 11.8302 1.9391 11.6732C1.9391 11.5144 1.95181 11.3423 1.9833 11.1989L4.41297 10.6872C4.72606 10.6212 4.98645 10.4051 5.10889 10.1095L5.73036 8.60905C5.85218 8.31494 5.82186 7.97976 5.64924 7.71229L4.29799 5.61855C4.37292 5.50133 4.48024 5.37643 4.59121 5.26546C4.70353 5.15314 4.83421 5.04043 4.95782 4.96136L7.03772 6.31752C7.30824 6.49391 7.64881 6.52402 7.94608 6.39785L9.43356 5.76652C9.72386 5.6433 9.93609 5.38659 10.0025 5.0783L10.5276 2.64232ZM10.0558 0.761162C10.3974 0.679518 10.7359 0.660889 10.9846 0.660889C11.233 0.660889 11.5745 0.679518 11.9187 0.760189C12.2408 0.835695 12.7034 0.996765 13.0455 1.38326C13.1568 1.50905 13.2335 1.66161 13.2681 1.82599L13.763 4.17546L14.3353 4.41421L16.3549 3.11079C16.4948 3.02054 16.6555 2.96781 16.8216 2.95767C17.3306 2.92663 17.7654 3.13096 18.0487 3.30494C18.348 3.48878 18.6005 3.71498 18.7763 3.89079C18.952 4.06648 19.1803 4.32111 19.3666 4.62153C19.541 4.90271 19.7542 5.34369 19.7228 5.85885C19.7126 6.02652 19.659 6.18866 19.5672 6.32937L18.2567 8.33928L18.488 8.89774L20.8393 9.40451C21.0021 9.43958 21.153 9.51595 21.2776 9.62626C21.6595 9.9642 21.8225 10.4162 21.8997 10.7395C21.9814 11.0811 22 11.4196 22 11.6683C22 11.9167 21.9814 12.2582 21.9007 12.6024C21.8252 12.9245 21.6641 13.3871 21.2776 13.7291C21.1518 13.8405 20.9993 13.9172 20.8349 13.9518L18.4869 14.4464L18.2556 15.0048L19.5598 17.0257C19.6501 17.1656 19.7028 17.3263 19.7129 17.4924C19.744 18.0014 19.5396 18.4362 19.3657 18.7195C19.1818 19.0188 18.9556 19.2713 18.7798 19.4471C18.6041 19.6228 18.3495 19.8511 18.0491 20.0374C17.7679 20.2118 17.3269 20.425 16.8118 20.3936C16.6441 20.3834 16.482 20.3298 16.3412 20.238L14.3313 18.9275L13.7729 19.1588L13.2662 21.5101C13.2311 21.6728 13.1547 21.8237 13.0444 21.9484C12.7065 22.3302 12.2545 22.4932 11.9312 22.5705C11.5896 22.6521 11.2511 22.6707 11.0024 22.6707C10.754 22.6707 10.4125 22.6521 10.0683 22.5714C9.74616 22.4959 9.28359 22.3349 8.94153 21.9484C8.8302 21.8226 8.75347 21.67 8.71884 21.5056L8.2243 19.1577L7.66589 18.9264L5.64496 20.2306C5.50511 20.3209 5.34438 20.3736 5.17825 20.3838C4.66928 20.4148 4.23445 20.2105 3.9512 20.0365C3.6519 19.8526 3.39936 19.6265 3.22355 19.4506C3.04786 19.275 2.81957 19.0203 2.63324 18.7199C2.45884 18.4387 2.24565 17.9977 2.27707 17.4826C2.2873 17.3149 2.34091 17.1528 2.43266 17.0121L3.74321 15.0021L3.51192 14.4437L1.16066 13.9369C0.997951 13.9019 0.847011 13.8255 0.72237 13.7152C0.340521 13.3773 0.177539 12.9253 0.100273 12.602C0.0186296 12.2604 0 11.9218 0 11.6732C0 11.4247 0.0186297 11.0833 0.0993006 10.7391C0.174806 10.4169 0.335876 9.95438 0.72237 9.61232C0.848164 9.50099 1.00072 9.42426 1.1651 9.38963L3.51303 8.89509L3.74433 8.33666L2.44006 6.31572C2.34981 6.17587 2.29708 6.01514 2.28694 5.84901C2.2559 5.34004 2.46023 4.90521 2.63421 4.62196C2.81805 4.32266 3.04425 4.07012 3.22006 3.89431C3.39575 3.71862 3.65038 3.49033 3.95079 3.304C4.23198 3.1296 4.67296 2.91641 5.18812 2.94783C5.35579 2.95806 5.51793 3.01167 5.65864 3.10342L7.66406 4.41102L8.21294 4.17806L8.72083 1.82155C8.7559 1.65884 8.83226 1.5079 8.94257 1.38326C9.28052 1.00141 9.73248 0.838428 10.0558 0.761162ZM11 9.29773C9.69212 9.29773 8.6319 10.358 8.6319 11.6658C8.6319 12.9736 9.69212 14.0339 11 14.0339C12.3078 14.0339 13.368 12.9736 13.368 11.6658C13.368 10.358 12.3078 9.29773 11 9.29773ZM6.69279 11.6658C6.69279 9.28702 8.62118 7.35863 11 7.35863C13.3787 7.35863 15.3071 9.28702 15.3071 11.6658C15.3071 14.0446 13.3787 15.973 11 15.973C8.62118 15.973 6.69279 14.0446 6.69279 11.6658Z" fill="#112340"/>
</svg>
