<svg width="23" height="23" viewBox="0 0 23 23" fill="none" xmlns="http://www.w3.org/2000/svg">
<path fill-rule="evenodd" clip-rule="evenodd" d="M20.5 11.5005C20.5 16.4711 16.4706 20.5005 11.5 20.5005C6.52944 20.5005 2.5 16.4711 2.5 11.5005C2.5 6.52993 6.52944 2.50049 11.5 2.50049C16.4706 2.50049 20.5 6.52993 20.5 11.5005ZM22.5 11.5005C22.5 17.5756 17.5751 22.5005 11.5 22.5005C5.42487 22.5005 0.5 17.5756 0.5 11.5005C0.5 5.42536 5.42487 0.500488 11.5 0.500488C17.5751 0.500488 22.5 5.42536 22.5 11.5005ZM16.7845 9.4087C17.1736 9.01671 17.1712 8.38355 16.7792 7.9945C16.3872 7.60544 15.754 7.60782 15.365 7.99981L10.1489 13.2553L7.67555 10.8051C7.2832 10.4164 6.65004 10.4193 6.26136 10.8117C5.87267 11.2041 5.87564 11.8372 6.26799 12.2259L9.09619 15.0277C9.68433 15.6103 10.6333 15.6063 11.2165 15.0187L16.7845 9.4087Z" fill="#112340"/>
</svg>
