<svg width="20" height="23" viewBox="0 0 20 23" fill="none" xmlns="http://www.w3.org/2000/svg">
<path fill-rule="evenodd" clip-rule="evenodd" d="M9.79082 5.79992C9.49784 5.79992 9.22177 5.89663 8.96595 6.07953C8.7117 6.2615 8.5293 6.48609 8.43131 6.75411L5.39505 15.0141L5.39354 15.0186C5.27034 15.3821 5.28025 15.72 5.46682 16.0025C5.65546 16.2884 5.96197 16.4161 6.33857 16.4161C6.53446 16.4161 6.71722 16.3513 6.88345 16.2319C7.04766 16.1139 7.1693 15.9654 7.23927 15.7858L7.9261 13.812H11.6959L12.3602 15.7779L12.3633 15.7858C12.4312 15.9599 12.5416 16.1072 12.6907 16.2262C12.8467 16.3507 13.0257 16.4161 13.2223 16.4161C13.6094 16.4161 13.9252 16.2901 14.1158 16.0022C14.3017 15.7197 14.3113 15.382 14.1882 15.0186L11.1503 6.75411C11.0518 6.48437 10.8646 6.25957 10.6035 6.07797C10.3436 5.89785 10.0718 5.79992 9.79082 5.79992ZM8.55342 11.9472L9.79089 8.3547L11.0284 11.9472H8.55342Z" fill="#112340"/>
<path d="M6.23001 1.94306C3.70954 1.94306 1.6663 3.9863 1.6663 6.50677C1.6663 8.2929 2.69238 9.83937 4.18725 10.5889C4.46384 10.7276 4.78741 10.5785 4.90116 10.2908C5.01853 9.99386 4.86729 9.66225 4.59486 9.4958C3.67539 8.93402 3.08263 7.92096 3.08263 6.76457C3.08263 5.35865 4.18725 4.33007 6.26004 4.33007H14.6924C14.9483 4.33007 15.1558 4.1226 15.1558 3.86668V2.40646C15.1558 2.15053 14.9483 1.94306 14.6924 1.94306H6.23001Z" fill="#112340"/>
<path d="M19.5283 2.92232C19.6383 3.04265 19.6383 3.22701 19.5283 3.34734L17.0241 6.08671C16.8302 6.29888 16.4767 6.16166 16.4767 5.8742V0.395457C16.4767 0.108 16.8302 -0.0292157 17.0241 0.182951L19.5283 2.92232Z" fill="#112340"/>
<path d="M13.7702 20.2167C16.2907 20.2167 18.3339 18.1734 18.3339 15.653C18.3339 13.8668 17.3078 12.3204 15.813 11.5708C15.5364 11.4322 15.2128 11.5812 15.0991 11.869C14.9817 12.1659 15.1329 12.4975 15.4054 12.6639C16.3248 13.2257 16.9176 14.2388 16.9176 15.3952C16.9176 16.8011 15.813 17.8297 13.7402 17.8297H5.30782C5.0519 17.8297 4.84443 18.0371 4.84443 18.2931V19.7533C4.84443 20.0092 5.0519 20.2167 5.30782 20.2167H13.7702Z" fill="#112340"/>
<path d="M0.471897 19.2374C0.361905 19.1171 0.361907 18.9327 0.471899 18.8124L2.97607 16.073C3.17002 15.8609 3.5235 15.9981 3.5235 16.2855V21.7643C3.5235 22.0517 3.17002 22.1889 2.97607 21.9768L0.471897 19.2374Z" fill="#112340"/>
</svg>
