<svg width="19" height="21" viewBox="0 0 19 21" fill="none" xmlns="http://www.w3.org/2000/svg">
<path fill-rule="evenodd" clip-rule="evenodd" d="M9.4999 2.6658C7.84305 2.6658 6.4999 4.00895 6.4999 5.6658C6.4999 7.32266 7.84305 8.6658 9.4999 8.6658C11.1568 8.6658 12.4999 7.32266 12.4999 5.6658C12.4999 4.00895 11.1568 2.6658 9.4999 2.6658ZM4.4999 5.6658C4.4999 2.90438 6.73848 0.665802 9.4999 0.665802C12.2613 0.665802 14.4999 2.90438 14.4999 5.6658C14.4999 8.42723 12.2613 10.6658 9.4999 10.6658C6.73848 10.6658 4.4999 8.42723 4.4999 5.6658ZM1.96447 14.1303C2.90215 13.1926 4.17392 12.6658 5.5 12.6658H13.5C14.8261 12.6658 16.0978 13.1926 17.0355 14.1303C17.9732 15.068 18.5 16.3397 18.5 17.6658V19.6658C18.5 20.2181 18.0523 20.6658 17.5 20.6658C16.9477 20.6658 16.5 20.2181 16.5 19.6658V17.6658C16.5 16.8702 16.1839 16.1071 15.6213 15.5445C15.0587 14.9819 14.2956 14.6658 13.5 14.6658H5.5C4.70435 14.6658 3.94129 14.9819 3.37868 15.5445C2.81607 16.1071 2.5 16.8702 2.5 17.6658V19.6658C2.5 20.2181 2.05228 20.6658 1.5 20.6658C0.947715 20.6658 0.5 20.2181 0.5 19.6658V17.6658C0.5 16.3397 1.02678 15.068 1.96447 14.1303Z" fill="#112340"/>
</svg>
