<svg width="23" height="23" viewBox="0 0 23 23" fill="none" xmlns="http://www.w3.org/2000/svg">
<path fill-rule="evenodd" clip-rule="evenodd" d="M11.0528 0.606061C11.3343 0.465297 11.6657 0.465297 11.9472 0.606061L21.9472 5.60606C22.286 5.77545 22.5 6.12172 22.5 6.50049C22.5 6.87926 22.286 7.22552 21.9472 7.39492L11.9472 12.3949C11.6657 12.5357 11.3343 12.5357 11.0528 12.3949L1.05279 7.39492C0.714002 7.22552 0.5 6.87926 0.5 6.50049C0.5 6.12172 0.714002 5.77545 1.05279 5.60606L11.0528 0.606061ZM3.73607 6.50049L11.5 10.3825L19.2639 6.50049L11.5 2.61852L3.73607 6.50049Z" fill="#112340"/>
<path d="M0.605578 16.0532C0.852567 15.5593 1.45324 15.359 1.94722 15.606L11.5 20.3824L21.0528 15.606C21.5468 15.359 22.1474 15.5593 22.3944 16.0532C22.6414 16.5472 22.4412 17.1479 21.9472 17.3949L11.9472 22.3949C11.6657 22.5357 11.3343 22.5357 11.0528 22.3949L1.05279 17.3949C0.558813 17.1479 0.358589 16.5472 0.605578 16.0532Z" fill="#112340"/>
<path d="M1.94722 10.606C1.45324 10.359 0.852567 10.5593 0.605578 11.0532C0.358589 11.5472 0.558813 12.1479 1.05279 12.3949L11.0528 17.3949C11.3343 17.5357 11.6657 17.5357 11.9472 17.3949L21.9472 12.3949C22.4412 12.1479 22.6414 11.5472 22.3944 11.0532C22.1474 10.5593 21.5468 10.359 21.0528 10.606L11.5 15.3824L1.94722 10.606Z" fill="#112340"/>
</svg>
