<svg width="29" height="21" viewBox="0 0 29 21" fill="none" xmlns="http://www.w3.org/2000/svg">
<path fill-rule="evenodd" clip-rule="evenodd" d="M20.5182 2.66577C18.8649 2.66577 17.5246 4.00892 17.5246 5.66577C17.5246 7.32263 18.8649 8.66577 20.5182 8.66577C22.1715 8.66577 23.5118 7.32263 23.5118 5.66577C23.5118 4.00892 22.1715 2.66577 20.5182 2.66577ZM15.5289 5.66577C15.5289 2.90435 17.7627 0.665771 20.5182 0.665771C23.2737 0.665771 25.5075 2.90435 25.5075 5.66577C25.5075 8.4272 23.2737 10.6658 20.5182 10.6658C17.7627 10.6658 15.5289 8.4272 15.5289 5.66577ZM13.4977 14.1302C14.4334 13.1926 15.7025 12.6658 17.0257 12.6658H24.0107C25.334 12.6658 26.603 13.1926 27.5387 14.1302C28.4743 15.0679 29 16.3397 29 17.6658V19.6658C29 20.2181 28.5532 20.6658 28.0021 20.6658C27.451 20.6658 27.0043 20.2181 27.0043 19.6658V17.6658C27.0043 16.8701 26.6889 16.1071 26.1275 15.5445C25.5661 14.9818 24.8047 14.6658 24.0107 14.6658H17.0257C16.2318 14.6658 15.4703 14.9818 14.9089 15.5445C14.3475 16.1071 14.0321 16.8701 14.0321 17.6658V19.6658C14.0321 20.2181 13.5854 20.6658 13.0343 20.6658C12.4832 20.6658 12.0364 20.2181 12.0364 19.6658V17.6658C12.0364 16.3397 12.5621 15.0679 13.4977 14.1302Z" fill="white"/>
<path d="M11.682 9.76538C12.0717 10.1559 12.0717 10.7891 11.682 11.1796L7.39833 15.4725C7.00864 15.8631 6.37683 15.8631 5.98715 15.4725C5.59746 15.082 5.59746 14.4488 5.98715 14.0583L8.5674 11.4725H0.997858C0.446756 11.4725 -2.40892e-08 11.0248 0 10.4725C2.40897e-08 9.9202 0.446756 9.47248 0.997858 9.47248H8.5674L6.07275 6.97249C5.68306 6.58196 5.68306 5.9488 6.07275 5.55827C6.46244 5.16775 7.09425 5.16775 7.48393 5.55827L11.682 9.76538Z" fill="white"/>
</svg>
