<svg width="19" height="23" viewBox="0 0 19 23" fill="none" xmlns="http://www.w3.org/2000/svg">
<path d="M17 18.859H6C5.45 18.859 4.97933 18.6633 4.588 18.272C4.196 17.88 4 17.409 4 16.859V2.85901C4 2.30901 4.196 1.83801 4.588 1.44601C4.97933 1.05468 5.45 0.859009 6 0.859009H12.175C12.4417 0.859009 12.696 0.909009 12.938 1.00901C13.1793 1.10901 13.3917 1.25068 13.575 1.43401L18.425 6.28401C18.6083 6.46734 18.75 6.67968 18.85 6.92101C18.95 7.16301 19 7.41734 19 7.68401V16.859C19 17.409 18.8043 17.88 18.413 18.272C18.021 18.6633 17.55 18.859 17 18.859ZM12 2.85901H6V16.859H17V7.85901H13C12.7167 7.85901 12.4793 7.76334 12.288 7.57201C12.096 7.38001 12 7.14234 12 6.85901V2.85901ZM2 22.859C1.45 22.859 0.979333 22.6633 0.588 22.272C0.196 21.88 0 21.409 0 20.859V7.85901C0 7.57568 0.0960001 7.33801 0.288 7.14601C0.479333 6.95468 0.716667 6.85901 1 6.85901C1.28333 6.85901 1.521 6.95468 1.713 7.14601C1.90433 7.33801 2 7.57568 2 7.85901V20.859H12C12.2833 20.859 12.521 20.955 12.713 21.147C12.9043 21.3383 13 21.5757 13 21.859C13 22.1423 12.9043 22.3797 12.713 22.571C12.521 22.763 12.2833 22.859 12 22.859H2ZM6 2.85901V6.85901C6 7.14234 6 7.38001 6 7.57201C6 7.76334 6 7.85901 6 7.85901V2.85901V6.85901C6 7.14234 6 7.38001 6 7.57201C6 7.76334 6 7.85901 6 7.85901V16.859V2.85901Z" fill="#E99A3D"/>
</svg>
