<svg width="27" height="21" viewBox="0 0 27 21" fill="none" xmlns="http://www.w3.org/2000/svg">
<path fill-rule="evenodd" clip-rule="evenodd" d="M22.1906 3.65901V4.45901L25.6907 4.45901C26.2429 4.45901 26.6907 4.90673 26.6907 5.45901C26.6907 6.0113 26.2429 6.45901 25.6907 6.45901H24.8906V18.059C24.8906 18.8016 24.5956 19.5138 24.0705 20.0389C23.5454 20.564 22.8333 20.859 22.0906 20.859H13.0906C12.348 20.859 11.6358 20.564 11.1107 20.0389C10.5856 19.5138 10.2906 18.8016 10.2906 18.059V6.45901H9.49066C8.93837 6.45901 8.49066 6.0113 8.49066 5.45901C8.49066 4.90673 8.93837 4.45901 9.49066 4.45901L12.9906 4.45901V3.65901C12.9906 2.9164 13.2856 2.20421 13.8107 1.67911C14.3359 1.15401 15.048 0.859009 15.7906 0.859009H19.3906C20.1333 0.859009 20.8454 1.15401 21.3705 1.67911C21.8956 2.20421 22.1906 2.9164 22.1906 3.65901ZM15.225 3.09332C15.375 2.94329 15.5785 2.85901 15.7906 2.85901H19.3906C19.6028 2.85901 19.8063 2.94329 19.9563 3.09332C20.1064 3.24335 20.1906 3.44684 20.1906 3.65901V4.45901H14.9906V3.65901C14.9906 3.44684 15.0749 3.24335 15.225 3.09332ZM12.2906 6.45901V18.059C12.2906 18.2712 12.3749 18.4747 12.525 18.6247C12.675 18.7747 12.8785 18.859 13.0906 18.859H22.0906C22.3028 18.859 22.5063 18.7747 22.6563 18.6247C22.8064 18.4747 22.8906 18.2712 22.8906 18.059V6.45901L12.2906 6.45901Z" fill="#E99A3D"/>
<path fill-rule="evenodd" clip-rule="evenodd" d="M15.7907 8.95901C16.3429 8.95901 16.7907 9.40672 16.7907 9.95901V15.359C16.7907 15.9113 16.3429 16.359 15.7907 16.359C15.2384 16.359 14.7907 15.9113 14.7907 15.359V9.95901C14.7907 9.40672 15.2384 8.95901 15.7907 8.95901Z" fill="#E99A3D"/>
<path fill-rule="evenodd" clip-rule="evenodd" d="M19.3907 8.95901C19.9429 8.95901 20.3907 9.40672 20.3907 9.95901V15.359C20.3907 15.9113 19.9429 16.359 19.3907 16.359C18.8384 16.359 18.3907 15.9113 18.3907 15.359V9.95901C18.3907 9.40672 18.8384 8.95901 19.3907 8.95901Z" fill="#E99A3D"/>
<path d="M4.32484 16.7439C4.228 16.7439 4.1286 16.7221 4.02664 16.6783C3.92468 16.6345 3.83506 16.574 3.75778 16.4967L0.541877 13.2815C0.386843 13.126 0.309326 12.9368 0.309326 12.7138C0.309326 12.4908 0.386843 12.3015 0.541877 12.146C0.687599 12.0008 0.869635 11.9281 1.08799 11.9281C1.30587 11.9281 1.48767 12.0008 1.6334 12.146L3.52453 14.0232V5.7596C3.52453 5.54591 3.60461 5.36155 3.76476 5.20651C3.92491 5.05148 4.11161 4.97396 4.32484 4.97396C4.53807 4.97396 4.72476 5.05381 4.88491 5.2135C5.04507 5.37365 5.12514 5.56058 5.12514 5.77427V14.0232L7.00161 12.146C7.15711 11.991 7.3438 11.916 7.56169 11.9211C7.78004 11.9258 7.96207 12.0008 8.1078 12.146C8.26283 12.3015 8.34035 12.4908 8.34035 12.7138C8.34035 12.9368 8.26283 13.126 8.1078 13.2815L4.8919 16.4967C4.81461 16.574 4.72499 16.6345 4.62303 16.6783C4.52107 16.7221 4.42167 16.7439 4.32484 16.7439Z" fill="#E99A3D"/>
</svg>
