<svg width="27" height="21" viewBox="0 0 27 21" fill="none" xmlns="http://www.w3.org/2000/svg">
<path fill-rule="evenodd" clip-rule="evenodd" d="M22.1906 3.46577V4.26577L25.6907 4.26578C26.2429 4.26578 26.6907 4.71349 26.6907 5.26578C26.6907 5.81806 26.2429 6.26578 25.6907 6.26578H24.8906V17.8658C24.8906 18.6084 24.5956 19.3206 24.0705 19.8457C23.5454 20.3708 22.8333 20.6658 22.0906 20.6658H13.0906C12.348 20.6658 11.6358 20.3708 11.1107 19.8457C10.5856 19.3206 10.2906 18.6084 10.2906 17.8658V6.26578H9.49066C8.93837 6.26578 8.49066 5.81806 8.49066 5.26578C8.49066 4.71349 8.93837 4.26578 9.49066 4.26578L12.9906 4.26577V3.46577C12.9906 2.72316 13.2856 2.01097 13.8107 1.48587C14.3359 0.960771 15.048 0.665771 15.7906 0.665771H19.3906C20.1333 0.665771 20.8454 0.960771 21.3705 1.48587C21.8956 2.01097 22.1906 2.72316 22.1906 3.46577ZM15.225 2.90009C15.375 2.75006 15.5785 2.66577 15.7906 2.66577H19.3906C19.6028 2.66577 19.8063 2.75006 19.9563 2.90009C20.1064 3.05012 20.1906 3.2536 20.1906 3.46577V4.26577H14.9906V3.46577C14.9906 3.2536 15.0749 3.05012 15.225 2.90009ZM12.2906 6.26578V17.8658C12.2906 18.0779 12.3749 18.2814 12.525 18.4315C12.675 18.5815 12.8785 18.6658 13.0906 18.6658H22.0906C22.3028 18.6658 22.5063 18.5815 22.6563 18.4315C22.8064 18.2814 22.8906 18.0779 22.8906 17.8658V6.26577L12.2906 6.26578Z" fill="white"/>
<path fill-rule="evenodd" clip-rule="evenodd" d="M15.7907 8.76577C16.3429 8.76577 16.7907 9.21349 16.7907 9.76577V15.1658C16.7907 15.7181 16.3429 16.1658 15.7907 16.1658C15.2384 16.1658 14.7907 15.7181 14.7907 15.1658V9.76577C14.7907 9.21349 15.2384 8.76577 15.7907 8.76577Z" fill="white"/>
<path fill-rule="evenodd" clip-rule="evenodd" d="M19.3907 8.76577C19.9429 8.76577 20.3907 9.21349 20.3907 9.76577V15.1658C20.3907 15.7181 19.9429 16.1658 19.3907 16.1658C18.8384 16.1658 18.3907 15.7181 18.3907 15.1658V9.76577C18.3907 9.21349 18.8384 8.76577 19.3907 8.76577Z" fill="white"/>
<path d="M4.32484 16.5507C4.228 16.5507 4.1286 16.5288 4.02664 16.4851C3.92468 16.4413 3.83506 16.3808 3.75778 16.3035L0.541877 13.0883C0.386843 12.9328 0.309326 12.7435 0.309326 12.5205C0.309326 12.2975 0.386843 12.1083 0.541877 11.9528C0.687599 11.8075 0.869635 11.7349 1.08799 11.7349C1.30587 11.7349 1.48767 11.8075 1.6334 11.9528L3.52453 13.8299V5.56637C3.52453 5.35267 3.60461 5.16831 3.76476 5.01327C3.92491 4.85824 4.11161 4.78072 4.32484 4.78072C4.53807 4.78072 4.72476 4.86057 4.88491 5.02026C5.04507 5.18041 5.12514 5.36734 5.12514 5.58103V13.8299L7.00161 11.9528C7.15711 11.7977 7.3438 11.7228 7.56169 11.7279C7.78004 11.7326 7.96207 11.8075 8.1078 11.9528C8.26283 12.1083 8.34035 12.2975 8.34035 12.5205C8.34035 12.7435 8.26283 12.9328 8.1078 13.0883L4.8919 16.3035C4.81461 16.3808 4.72499 16.4413 4.62303 16.4851C4.52107 16.5288 4.42167 16.5507 4.32484 16.5507Z" fill="white"/>
</svg>
