<svg width="20" height="21" viewBox="0 0 20 21" fill="none" xmlns="http://www.w3.org/2000/svg">
<path fill-rule="evenodd" clip-rule="evenodd" d="M14.6929 1.1519C15.0834 0.761378 15.7166 0.761378 16.1071 1.1519L19.7071 4.7519C19.8947 4.93944 20 5.19379 20 5.45901C20 5.72423 19.8947 5.97858 19.7071 6.16612L10.7071 15.1661C10.5196 15.3537 10.2652 15.459 10 15.459H6.40002C5.84774 15.459 5.40002 15.0113 5.40002 14.459V10.859C5.40002 10.5938 5.50538 10.3394 5.69292 10.1519L14.6929 1.1519ZM15.4 3.27322L7.40002 11.2732V13.459H9.58581L17.5858 5.45901L15.4 3.27322ZM2.8 4.85901C2.58783 4.85901 2.38434 4.94329 2.23431 5.09332C2.08429 5.24335 2 5.44684 2 5.65901V18.059C2 18.2712 2.08428 18.4747 2.23431 18.6247C2.38434 18.7747 2.58783 18.859 2.8 18.859H15.2C15.4122 18.859 15.6157 18.7747 15.7657 18.6247C15.9157 18.4747 16 18.2712 16 18.059V12.859C16 12.3067 16.4477 11.859 17 11.859C17.5523 11.859 18 12.3067 18 12.859V18.059C18 18.8016 17.705 19.5138 17.1799 20.0389C16.6548 20.564 15.9426 20.859 15.2 20.859H2.8C2.05739 20.859 1.3452 20.564 0.820101 20.0389C0.295 19.5138 0 18.8016 0 18.059V5.65901C0 4.9164 0.294999 4.20421 0.820101 3.67911C1.3452 3.15401 2.05739 2.85901 2.8 2.85901H8C8.55228 2.85901 9 3.30672 9 3.85901C9 4.41129 8.55228 4.85901 8 4.85901H2.8Z" fill="#FFA726"/>
</svg>
