<svg width="19" height="19" viewBox="0 0 19 19" fill="none" xmlns="http://www.w3.org/2000/svg">
<path fill-rule="evenodd" clip-rule="evenodd" d="M0.5 3.85901C0.5 2.20215 1.84315 0.859009 3.5 0.859009H8.5C9.05228 0.859009 9.5 1.30672 9.5 1.85901C9.5 2.41129 9.05228 2.85901 8.5 2.85901H3.5C2.94772 2.85901 2.5 3.30672 2.5 3.85901V15.859C2.5 16.4113 2.94772 16.859 3.5 16.859H15.5C16.0523 16.859 16.5 16.4113 16.5 15.859V10.859C16.5 10.3067 16.9477 9.85901 17.5 9.85901C18.0523 9.85901 18.5 10.3067 18.5 10.859V15.859C18.5 17.5159 17.1569 18.859 15.5 18.859H3.5C1.84315 18.859 0.5 17.5159 0.5 15.859V3.85901ZM12.5 2.85901C11.9477 2.85901 11.5 2.41129 11.5 1.85901C11.5 1.30672 11.9477 0.859009 12.5 0.859009H17.5C18.0523 0.859009 18.5 1.30672 18.5 1.85901V6.85901C18.5 7.41129 18.0523 7.85901 17.5 7.85901C16.9477 7.85901 16.5 7.41129 16.5 6.85901V4.27322L7.20711 13.5661C6.81658 13.9566 6.18342 13.9566 5.79289 13.5661C5.40237 13.1756 5.40237 12.5424 5.79289 12.1519L15.0858 2.85901H12.5Z" fill="#FFA726"/>
</svg>
