<svg width="24" height="16" viewBox="0 0 24 16" fill="none" xmlns="http://www.w3.org/2000/svg">
<mask id="path-1-inside-1_1542_5455" fill="white">
<path fill-rule="evenodd" clip-rule="evenodd" d="M11.9996 13.3666C13.4726 12.0482 14.3996 10.1324 14.3996 7.99996C14.3996 5.86756 13.4726 3.95167 11.9996 2.6333C10.5266 3.95167 9.59961 5.86756 9.59961 7.99996C9.59961 10.1324 10.5266 12.0482 11.9996 13.3666Z"/>
</mask>
<path fill-rule="evenodd" clip-rule="evenodd" d="M11.9996 13.3666C13.4726 12.0482 14.3996 10.1324 14.3996 7.99996C14.3996 5.86756 13.4726 3.95167 11.9996 2.6333C10.5266 3.95167 9.59961 5.86756 9.59961 7.99996C9.59961 10.1324 10.5266 12.0482 11.9996 13.3666Z" fill="#9AACCB"/>
<path d="M11.9996 13.3666L11.3327 14.1117L11.9996 14.7086L12.6665 14.1117L11.9996 13.3666ZM11.9996 2.6333L12.6665 1.88817L11.9996 1.29126L11.3327 1.88817L11.9996 2.6333ZM13.3996 7.99996C13.3996 9.83609 12.6027 11.4848 11.3327 12.6215L12.6665 14.1117C14.3425 12.6117 15.3996 10.4286 15.3996 7.99996H13.3996ZM11.3327 3.37844C12.6027 4.51513 13.3996 6.16382 13.3996 7.99996H15.3996C15.3996 5.5713 14.3425 3.38821 12.6665 1.88817L11.3327 3.37844ZM10.5996 7.99996C10.5996 6.16382 11.3965 4.51513 12.6665 3.37844L11.3327 1.88817C9.65671 3.38821 8.59961 5.57129 8.59961 7.99996H10.5996ZM12.6665 12.6215C11.3965 11.4848 10.5996 9.83609 10.5996 7.99996H8.59961C8.59961 10.4286 9.65671 12.6117 11.3327 14.1117L12.6665 12.6215Z" fill="white" mask="url(#path-1-inside-1_1542_5455)"/>
<circle cx="16.7996" cy="8.00005" r="6.7" stroke="#9AACCB"/>
<circle cx="7.2" cy="8.00005" r="6.7" stroke="#9AACCB"/>
</svg>
