<svg width="8" height="8" viewBox="0 0 8 8" fill="none" xmlns="http://www.w3.org/2000/svg">
<path d="M7.86441 1.63674L5.50258 3.99856L7.86441 6.36038C8.04135 6.53732 8.04135 6.82582 7.86441 7.00661L7.00661 7.86441C6.82967 8.04135 6.54117 8.04135 6.36038 7.86441L3.99856 5.50258L1.63674 7.86441C1.45979 8.04135 1.17129 8.04135 0.990504 7.86441L0.132708 7.00661C-0.0442361 6.82967 -0.0442361 6.54117 0.132708 6.36038L2.49453 3.99856L0.132708 1.63674C-0.0442361 1.45979 -0.0442361 1.17129 0.132708 0.990504L0.990504 0.132708C1.16745 -0.0442361 1.45594 -0.0442361 1.63674 0.132708L3.99856 2.49453L6.36038 0.132708C6.53732 -0.0442361 6.82582 -0.0442361 7.00661 0.132708L7.86441 0.990504C8.0452 1.16745 8.0452 1.45594 7.86441 1.63674Z" fill="#E99A3D"/>
</svg>
