<svg width="23" height="15" viewBox="0 0 23 15" fill="none" xmlns="http://www.w3.org/2000/svg">
<mask id="path-1-inside-1_1542_5447" fill="white">
<path fill-rule="evenodd" clip-rule="evenodd" d="M11.5 13.2755C10.3001 14.1703 8.81193 14.7 7.2 14.7C3.22355 14.7 0 11.4765 0 7.50005C0 3.5236 3.22355 0.300049 7.2 0.300049C8.81193 0.300049 10.3001 0.829754 11.5 1.72459C12.7 0.829754 14.1882 0.300049 15.8001 0.300049C19.7765 0.300049 23.0001 3.5236 23.0001 7.50005C23.0001 11.4765 19.7765 14.7 15.8001 14.7C14.1882 14.7 12.7 14.1703 11.5 13.2755Z"/>
</mask>
<path fill-rule="evenodd" clip-rule="evenodd" d="M11.5 13.2755C10.3001 14.1703 8.81193 14.7 7.2 14.7C3.22355 14.7 0 11.4765 0 7.50005C0 3.5236 3.22355 0.300049 7.2 0.300049C8.81193 0.300049 10.3001 0.829754 11.5 1.72459C12.7 0.829754 14.1882 0.300049 15.8001 0.300049C19.7765 0.300049 23.0001 3.5236 23.0001 7.50005C23.0001 11.4765 19.7765 14.7 15.8001 14.7C14.1882 14.7 12.7 14.1703 11.5 13.2755Z" fill="#9AACCB"/>
<path d="M11.5 13.2755L12.0979 12.4739L11.5 12.0281L10.9022 12.4739L11.5 13.2755ZM11.5 1.72459L10.9022 2.52622L11.5 2.97204L12.0979 2.52622L11.5 1.72459ZM10.9022 12.4739C9.8691 13.2443 8.58922 13.7 7.2 13.7V15.7C9.03464 15.7 10.7312 15.0964 12.0979 14.0771L10.9022 12.4739ZM7.2 13.7C3.77583 13.7 1 10.9242 1 7.50005H-1C-1 12.0288 2.67126 15.7 7.2 15.7V13.7ZM1 7.50005C1 4.07588 3.77583 1.30005 7.2 1.30005V-0.699951C2.67126 -0.699951 -1 2.97131 -1 7.50005H1ZM7.2 1.30005C8.58922 1.30005 9.8691 1.75576 10.9022 2.52622L12.0979 0.922957C10.7312 -0.0962544 9.03464 -0.699951 7.2 -0.699951V1.30005ZM12.0979 2.52622C13.131 1.75576 14.4109 1.30005 15.8001 1.30005V-0.699951C13.9655 -0.699951 12.2689 -0.0962543 10.9022 0.922957L12.0979 2.52622ZM15.8001 1.30005C19.2243 1.30005 22.0001 4.07588 22.0001 7.50005H24.0001C24.0001 2.97131 20.3288 -0.699951 15.8001 -0.699951V1.30005ZM22.0001 7.50005C22.0001 10.9242 19.2243 13.7 15.8001 13.7V15.7C20.3288 15.7 24.0001 12.0288 24.0001 7.50005H22.0001ZM15.8001 13.7C14.4109 13.7 13.131 13.2443 12.0979 12.4739L10.9022 14.0771C12.2689 15.0964 13.9655 15.7 15.8001 15.7V13.7Z" fill="white" mask="url(#path-1-inside-1_1542_5447)"/>
<circle cx="15.7996" cy="7.50005" r="6.7" stroke="white"/>
<circle cx="7.2" cy="7.50005" r="6.7" stroke="white"/>
</svg>
