<svg width="15" height="16" viewBox="0 0 15 16" fill="none" xmlns="http://www.w3.org/2000/svg">
<path fill-rule="evenodd" clip-rule="evenodd" d="M15 3.5V14.5C15 15.3281 14.3052 16 13.4489 16H2.07384C1.21749 16 0.522705 15.3281 0.522705 14.5V3.5C0.522705 2.67188 1.21749 2 2.07384 2H3.62498V0.375C3.62498 0.16875 3.79949 0 4.01277 0H5.30538C5.51866 0 5.69317 0.16875 5.69317 0.375V2H9.82954V0.375C9.82954 0.16875 10.004 0 10.2173 0H11.5099C11.7232 0 11.8977 0.16875 11.8977 0.375V2H13.4489C14.3052 2 15 2.67188 15 3.5ZM4.01244 9.00015H5.30506C5.51834 9.00015 5.69285 8.8314 5.69285 8.62515V7.37516C5.69285 7.16891 5.51834 7.00016 5.30506 7.00016H4.01244C3.79916 7.00016 3.62466 7.16891 3.62466 7.37516V8.62515C3.62466 8.8314 3.79916 9.00015 4.01244 9.00015ZM8.79512 7.37516V8.62515C8.79512 8.8314 8.62062 9.00015 8.40734 9.00015H7.11472C6.90144 9.00015 6.72694 8.8314 6.72694 8.62515V7.37516C6.72694 7.16891 6.90144 7.00016 7.11472 7.00016H8.40734C8.62062 7.00016 8.79512 7.16891 8.79512 7.37516ZM11.8974 8.62515V7.37516C11.8974 7.16891 11.7229 7.00016 11.5096 7.00016H10.217C10.0037 7.00016 9.82922 7.16891 9.82922 7.37516V8.62515C9.82922 8.8314 10.0037 9.00015 10.217 9.00015H11.5096C11.7229 9.00015 11.8974 8.8314 11.8974 8.62515ZM8.79512 10.3752V11.6252C8.79512 11.8314 8.62062 12.0002 8.40734 12.0002H7.11472C6.90144 12.0002 6.72694 11.8314 6.72694 11.6252V10.3752C6.72694 10.1689 6.90144 10.0002 7.11472 10.0002H8.40734C8.62062 10.0002 8.79512 10.1689 8.79512 10.3752ZM5.69285 11.6252V10.3752C5.69285 10.1689 5.51834 10.0002 5.30506 10.0002H4.01244C3.79916 10.0002 3.62466 10.1689 3.62466 10.3752V11.6252C3.62466 11.8314 3.79916 12.0002 4.01244 12.0002H5.30506C5.51834 12.0002 5.69285 11.8314 5.69285 11.6252ZM11.8974 10.3752V11.6252C11.8974 11.8314 11.7229 12.0002 11.5096 12.0002H10.217C10.0037 12.0002 9.82922 11.8314 9.82922 11.6252V10.3752C9.82922 10.1689 10.0037 10.0002 10.217 10.0002H11.5096C11.7229 10.0002 11.8974 10.1689 11.8974 10.3752ZM13.4485 5V14.3125C13.4485 14.4156 13.3613 14.5 13.2546 14.5H2.26741C2.16077 14.5 2.07352 14.4156 2.07352 14.3125V5H13.4485Z" fill="#757575"/>
</svg>
