<svg width="20" height="22" viewBox="0 0 20 22" fill="none" xmlns="http://www.w3.org/2000/svg">
<path d="M17.5 18H6.5C5.95 18 5.47933 17.8043 5.088 17.413C4.696 17.021 4.5 16.55 4.5 16V2C4.5 1.45 4.696 0.979 5.088 0.587C5.47933 0.195667 5.95 0 6.5 0H12.675C12.9417 0 13.196 0.05 13.438 0.15C13.6793 0.25 13.8917 0.391667 14.075 0.575L18.925 5.425C19.1083 5.60833 19.25 5.82067 19.35 6.062C19.45 6.304 19.5 6.55833 19.5 6.825V16C19.5 16.55 19.3043 17.021 18.913 17.413C18.521 17.8043 18.05 18 17.5 18ZM12.5 2H6.5V16H17.5V7H13.5C13.2167 7 12.9793 6.90433 12.788 6.713C12.596 6.521 12.5 6.28333 12.5 6V2ZM2.5 22C1.95 22 1.47933 21.8043 1.088 21.413C0.696 21.021 0.5 20.55 0.5 20V7C0.5 6.71667 0.596 6.479 0.788 6.287C0.979333 6.09567 1.21667 6 1.5 6C1.78333 6 2.021 6.09567 2.213 6.287C2.40433 6.479 2.5 6.71667 2.5 7V20H12.5C12.7833 20 13.021 20.096 13.213 20.288C13.4043 20.4793 13.5 20.7167 13.5 21C13.5 21.2833 13.4043 21.5207 13.213 21.712C13.021 21.904 12.7833 22 12.5 22H2.5ZM6.5 2V6C6.5 6.28333 6.5 6.521 6.5 6.713C6.5 6.90433 6.5 7 6.5 7V2V6C6.5 6.28333 6.5 6.521 6.5 6.713C6.5 6.90433 6.5 7 6.5 7V16V2Z" fill="#E99A3D"/>
</svg>
