<svg width="30" height="30" viewBox="0 0 30 30" fill="none" xmlns="http://www.w3.org/2000/svg">
<rect width="30" height="30" rx="5" fill="#9AACCB"/>
<path d="M15.9131 7.70578L22.5131 14.3058C22.6131 14.4058 22.6841 14.5141 22.7261 14.6308C22.7674 14.7474 22.7881 14.8724 22.7881 15.0058C22.7881 15.1391 22.7674 15.2641 22.7261 15.3808C22.6841 15.4974 22.6131 15.6058 22.5131 15.7058L15.9131 22.3058C15.7298 22.4891 15.5008 22.5851 15.2261 22.5938C14.9508 22.6018 14.7131 22.5058 14.5131 22.3058C14.3131 22.1224 14.2088 21.8934 14.2001 21.6188C14.1921 21.3434 14.2881 21.1058 14.4881 20.9058L19.3881 16.0058L8.21309 16.0058C7.92975 16.0058 7.69209 15.9101 7.50009 15.7188C7.30875 15.5268 7.21309 15.2891 7.21309 15.0058C7.21309 14.7224 7.30875 14.4851 7.50009 14.2938C7.69209 14.1018 7.92975 14.0058 8.21309 14.0058L19.3881 14.0058L14.4881 9.10578C14.3048 8.92244 14.2088 8.68911 14.2001 8.40578C14.1921 8.12244 14.2881 7.88911 14.4881 7.70578C14.6714 7.50578 14.9048 7.40578 15.1881 7.40578C15.4714 7.40578 15.7131 7.50578 15.9131 7.70578Z" fill="white"/>
</svg>
