<svg width="15" height="15" viewBox="0 0 15 15" fill="none" xmlns="http://www.w3.org/2000/svg">
<path fill-rule="evenodd" clip-rule="evenodd" d="M8.62236 13.6408L7.87914 14.384C7.56445 14.6987 7.05557 14.6987 6.74422 14.384L0.236023 7.87914C-0.0786743 7.56445 -0.0786743 7.05557 0.236023 6.74422L6.74422 0.236023C7.05892 -0.0786743 7.56779 -0.0786743 7.87914 0.236023L8.62236 0.979243C8.94041 1.29729 8.93371 1.8162 8.60897 2.12755L4.57482 5.97087H14.1965C14.6418 5.97087 15 6.32909 15 6.77436V7.84566C15 8.29093 14.6418 8.64915 14.1965 8.64915H4.57482L8.60897 12.4925C8.93706 12.8038 8.94376 13.3227 8.62236 13.6408Z" fill="#3e5064"/>
</svg>
