<svg width="15" height="15" viewBox="0 0 15 15" fill="none" xmlns="http://www.w3.org/2000/svg">
<path fill-rule="evenodd" clip-rule="evenodd" d="M6.37764 0.979243L7.12086 0.236023C7.43555 -0.0786743 7.94443 -0.0786743 8.25578 0.236023L14.764 6.74088C15.0787 7.05557 15.0787 7.56445 14.764 7.87579L8.25578 14.384C7.94108 14.6987 7.43221 14.6987 7.12086 14.384L6.37764 13.6408C6.05959 13.3227 6.06629 12.8038 6.39103 12.4925L10.4252 8.64915H0.803482C0.358219 8.64915 0 8.29093 0 7.84566V6.77436C0 6.32909 0.358219 5.97087 0.803482 5.97087H10.4252L6.39103 2.12755C6.06294 1.8162 6.05624 1.29729 6.37764 0.979243Z" fill="#F69626"/>
</svg>
