<svg width="19" height="20" viewBox="0 0 19 20" fill="none" xmlns="http://www.w3.org/2000/svg">
<path d="M1.80005 4.59998H3.60005H18" stroke="#F69626" stroke-width="2" stroke-linecap="round" stroke-linejoin="round"/>
<path d="M6.3001 4.6V2.8C6.3001 2.32261 6.48974 1.86477 6.82731 1.52721C7.16487 1.18964 7.62271 1 8.1001 1H11.7001C12.1775 1 12.6353 1.18964 12.9729 1.52721C13.3105 1.86477 13.5001 2.32261 13.5001 2.8V4.6M16.2001 4.6V17.2C16.2001 17.6774 16.0105 18.1352 15.6729 18.4728C15.3353 18.8104 14.8775 19 14.4001 19H5.4001C4.92271 19 4.46487 18.8104 4.12731 18.4728C3.78974 18.1352 3.6001 17.6774 3.6001 17.2V4.6H16.2001Z" stroke="#F69626" stroke-width="2" stroke-linecap="round" stroke-linejoin="round"/>
<path d="M8.1001 9.09998V14.5" stroke="#F69626" stroke-width="2" stroke-linecap="round" stroke-linejoin="round"/>
<path d="M11.7001 9.09998V14.5" stroke="#F69626" stroke-width="2" stroke-linecap="round" stroke-linejoin="round"/>
</svg>
