<svg width="23" height="23" viewBox="0 0 23 23" fill="none" xmlns="http://www.w3.org/2000/svg">
<path fill-rule="evenodd" clip-rule="evenodd" d="M11.5 2.66577C6.52944 2.66577 2.5 6.69521 2.5 11.6658C2.5 16.6363 6.52944 20.6658 11.5 20.6658C16.4706 20.6658 20.5 16.6363 20.5 11.6658C20.5 6.69521 16.4706 2.66577 11.5 2.66577ZM0.5 11.6658C0.5 5.59064 5.42487 0.665771 11.5 0.665771C17.5751 0.665771 22.5 5.59064 22.5 11.6658C22.5 17.7409 17.5751 22.6658 11.5 22.6658C5.42487 22.6658 0.5 17.7409 0.5 11.6658ZM7.79289 7.95866C8.18342 7.56814 8.81658 7.56814 9.20711 7.95866L11.5 10.2516L13.7929 7.95866C14.1834 7.56814 14.8166 7.56814 15.2071 7.95866C15.5976 8.34919 15.5976 8.98235 15.2071 9.37288L12.9142 11.6658L15.2071 13.9587C15.5976 14.3492 15.5976 14.9824 15.2071 15.3729C14.8166 15.7634 14.1834 15.7634 13.7929 15.3729L11.5 13.08L9.20711 15.3729C8.81658 15.7634 8.18342 15.7634 7.79289 15.3729C7.40237 14.9824 7.40237 14.3492 7.79289 13.9587L10.0858 11.6658L7.79289 9.37288C7.40237 8.98235 7.40237 8.34919 7.79289 7.95866Z" fill="#E99A3D"/>
</svg>
