<svg width="28" height="20" viewBox="0 0 28 20" fill="none" xmlns="http://www.w3.org/2000/svg">
<path d="M9.90039 4.6001H11.7004H26.1004" stroke="white" stroke-width="2" stroke-linecap="round" stroke-linejoin="round"/>
<path d="M14.4002 4.6V2.8C14.4002 2.32261 14.5898 1.86477 14.9274 1.52721C15.265 1.18964 15.7228 1 16.2002 1H19.8002C20.2776 1 20.7354 1.18964 21.073 1.52721C21.4106 1.86477 21.6002 2.32261 21.6002 2.8V4.6M24.3002 4.6V17.2C24.3002 17.6774 24.1106 18.1352 23.773 18.4728C23.4354 18.8104 22.9776 19 22.5002 19H13.5002C13.0228 19 12.565 18.8104 12.2274 18.4728C11.8898 18.1352 11.7002 17.6774 11.7002 17.2V4.6H24.3002Z" stroke="white" stroke-width="2" stroke-linecap="round" stroke-linejoin="round"/>
<path d="M16.2002 9.1001V14.5001" stroke="white" stroke-width="2" stroke-linecap="round" stroke-linejoin="round"/>
<path d="M19.8008 9.1001V14.5001" stroke="white" stroke-width="2" stroke-linecap="round" stroke-linejoin="round"/>
<path d="M4.73426 15.885C4.63742 15.885 4.53802 15.8631 4.43606 15.8193C4.33411 15.7756 4.24448 15.715 4.1672 15.6378L0.951301 12.4226C0.796267 12.2671 0.71875 12.0778 0.71875 11.8548C0.71875 11.6318 0.796267 11.4425 0.951301 11.287C1.09702 11.1418 1.27906 11.0692 1.49741 11.0692C1.71529 11.0692 1.8971 11.1418 2.04282 11.287L3.93395 13.1642V4.90063C3.93395 4.68694 4.01403 4.50257 4.17418 4.34754C4.33434 4.19251 4.52103 4.11499 4.73426 4.11499C4.94749 4.11499 5.13418 4.19483 5.29434 4.35452C5.45449 4.51468 5.53457 4.7016 5.53457 4.9153V13.1642L7.41103 11.287C7.56653 11.132 7.75323 11.0571 7.97111 11.0622C8.18946 11.0668 8.3715 11.1418 8.51722 11.287C8.67225 11.4425 8.74977 11.6318 8.74977 11.8548C8.74977 12.0778 8.67225 12.2671 8.51722 12.4226L5.30132 15.6378C5.22404 15.715 5.13441 15.7756 5.03246 15.8193C4.9305 15.8631 4.8311 15.885 4.73426 15.885Z" fill="white"/>
</svg>
