<svg width="16" height="18" viewBox="0 0 16 18" fill="none" xmlns="http://www.w3.org/2000/svg">
<path fill-rule="evenodd" clip-rule="evenodd" d="M12.1806 0.665771C12.4544 0.665771 12.717 0.781324 12.9106 0.987009L15.6977 3.9483C16.1008 4.37662 16.1008 5.07106 15.6977 5.49937L8.72992 12.9026C8.53633 13.1083 8.27377 13.2238 8 13.2238H5.2129C4.6428 13.2238 4.18065 12.7328 4.18065 12.1271V9.16577C4.18065 8.87489 4.2894 8.59592 4.48299 8.39024L11.4507 0.987009C11.6443 0.781324 11.9069 0.665771 12.1806 0.665771ZM6.24516 9.62007V11.0303H7.57242L13.5079 4.72384L12.1806 3.31362L6.24516 9.62007ZM2.42581 4.33997C2.32999 4.33997 2.23809 4.38041 2.17034 4.4524C2.10258 4.52439 2.06452 4.62203 2.06452 4.72384V15.0884C2.06452 15.1902 2.10258 15.2878 2.17034 15.3598C2.23809 15.4318 2.32999 15.4722 2.42581 15.4722H12.1806C12.2765 15.4722 12.3684 15.4318 12.4361 15.3598C12.5039 15.2878 12.5419 15.1902 12.5419 15.0884V11.135C12.5419 10.5293 13.0041 10.0383 13.5742 10.0383C14.1443 10.0383 14.6065 10.5293 14.6065 11.135V15.0884C14.6065 15.7719 14.3509 16.4275 13.8959 16.9109C13.441 17.3942 12.824 17.6658 12.1806 17.6658H2.42581C1.78244 17.6658 1.16543 17.3942 0.710502 16.9109C0.255575 16.4275 0 15.7719 0 15.0884V4.72384C0 4.04026 0.255575 3.38469 0.710502 2.90133C1.16543 2.41797 1.78244 2.14642 2.42581 2.14642H6.14658C6.71668 2.14642 7.17884 2.63746 7.17884 3.24319C7.17884 3.84892 6.71668 4.33997 6.14658 4.33997H2.42581Z" fill="white"/>
</svg>
