<svg width="27" height="25" viewBox="0 0 27 25" fill="none" xmlns="http://www.w3.org/2000/svg">
<path d="M5.88595 15.9155C5.42279 15.9155 5.03219 15.7514 4.71416 15.4234C4.39535 15.0953 4.25524 14.7093 4.29384 14.2655C4.35173 13.455 4.54472 12.7506 4.87279 12.1523C5.20086 11.5541 5.72191 10.9365 6.43595 10.2997C7.22717 9.60496 7.83005 9.0017 8.24458 8.48991C8.65988 7.97889 8.86753 7.39531 8.86753 6.73917C8.86753 5.94794 8.60237 5.2918 8.07205 4.77075C7.54096 4.2497 6.80261 3.98917 5.857 3.98917C5.23945 3.98917 4.71377 4.11924 4.27994 4.37938C3.84535 4.64029 3.49296 4.96373 3.22279 5.3497C2.95261 5.73566 2.61991 5.99619 2.22468 6.13128C1.82868 6.26636 1.44735 6.25671 1.08068 6.10233C0.636823 5.90935 0.333068 5.59092 0.169419 5.14706C0.00499798 4.7032 0.0385774 4.28829 0.270156 3.90233C0.829805 3.03391 1.58244 2.31022 2.52805 1.73128C3.47366 1.15233 4.58331 0.862854 5.857 0.862854C7.88331 0.862854 9.44184 1.42752 10.5326 2.55685C11.6225 3.68542 12.1675 5.04092 12.1675 6.62338C12.1675 7.58829 11.9603 8.41349 11.5457 9.09896C11.1304 9.78366 10.4789 10.5602 9.59121 11.4286C8.93507 12.0462 8.47191 12.5479 8.20173 12.9339C7.93156 13.3199 7.74823 13.7637 7.65174 14.2655C7.57454 14.7479 7.37191 15.1436 7.04384 15.4523C6.71577 15.7611 6.3298 15.9155 5.88595 15.9155ZM5.857 22.8629C5.22016 22.8629 4.67517 22.6363 4.22205 22.1832C3.76816 21.7293 3.54121 21.1839 3.54121 20.5471C3.54121 19.9102 3.76816 19.3649 4.22205 18.911C4.67517 18.4578 5.22016 18.2313 5.857 18.2313C6.49384 18.2313 7.03921 18.4578 7.4931 18.911C7.94623 19.3649 8.17279 19.9102 8.17279 20.5471C8.17279 21.1839 7.94623 21.7293 7.4931 22.1832C7.03921 22.6363 6.49384 22.8629 5.857 22.8629Z" fill="#112340"/>
<path d="M19.9787 16.5686C19.9787 16.4408 20.0204 16.313 20.1039 16.1852C20.1879 16.0568 20.2878 15.9735 20.4034 15.9354C20.7638 15.807 21.1306 15.7109 21.504 15.647C21.878 15.5831 22.2708 15.5511 22.6825 15.5511C22.9403 15.5511 23.1882 15.5671 23.4262 15.599C23.6648 15.631 23.9065 15.6728 24.1513 15.7244C24.2798 15.7496 24.3893 15.8165 24.4795 15.9253C24.5698 16.034 24.6149 16.1588 24.6149 16.2995C24.6149 16.5176 24.5407 16.6841 24.3923 16.799C24.2446 16.9145 24.0545 16.9464 23.8221 16.8948C23.6422 16.8567 23.4589 16.8281 23.2722 16.8091C23.0856 16.7894 22.889 16.7796 22.6825 16.7796C22.3481 16.7796 22.0263 16.8085 21.7173 16.8662C21.4082 16.924 21.1053 17.0042 20.8086 17.1068C20.5644 17.1959 20.365 17.1894 20.2105 17.0874C20.056 16.9848 19.9787 16.8119 19.9787 16.5686ZM19.9787 20.7157C19.9787 20.5879 20.0204 20.4601 20.1039 20.3323C20.1879 20.2039 20.2878 20.1207 20.4034 20.0826C20.7638 19.9542 21.1306 19.858 21.504 19.7941C21.878 19.7302 22.2708 19.6983 22.6825 19.6983C22.9403 19.6983 23.1882 19.7142 23.4262 19.7462C23.6648 19.7781 23.9065 19.8199 24.1513 19.8715C24.2798 19.8967 24.3893 19.9637 24.4795 20.0724C24.5698 20.1812 24.6149 20.3059 24.6149 20.4466C24.6149 20.6647 24.5407 20.8312 24.3923 20.9461C24.2446 21.0616 24.0545 21.0936 23.8221 21.0419C23.6422 21.0039 23.4589 20.9753 23.2722 20.9562C23.0856 20.9366 22.889 20.9268 22.6825 20.9268C22.3481 20.9268 22.0263 20.9526 21.7173 21.0042C21.4082 21.0552 21.1053 21.132 20.8086 21.2346C20.5644 21.3236 20.365 21.3203 20.2105 21.2244C20.056 21.1286 19.9787 20.959 19.9787 20.7157ZM19.9787 18.6421C19.9787 18.5143 20.0204 18.3865 20.1039 18.2588C20.1879 18.1303 20.2878 18.0471 20.4034 18.009C20.7638 17.8806 21.1306 17.7844 21.504 17.7205C21.878 17.6566 22.2708 17.6247 22.6825 17.6247C22.9403 17.6247 23.1882 17.6407 23.4262 17.6726C23.6648 17.7046 23.9065 17.7463 24.1513 17.798C24.2798 17.8231 24.3893 17.8901 24.4795 17.9989C24.5698 18.1076 24.6149 18.2323 24.6149 18.373C24.6149 18.5911 24.5407 18.7576 24.3923 18.8725C24.2446 18.988 24.0545 19.02 23.8221 18.9684C23.6422 18.9303 23.4589 18.9017 23.2722 18.8827C23.0856 18.863 22.889 18.8532 22.6825 18.8532C22.3481 18.8532 22.0263 18.8821 21.7173 18.9398C21.4082 18.9976 21.1053 19.0777 20.8086 19.1803C20.5644 19.2694 20.365 19.263 20.2105 19.161C20.056 19.0584 19.9787 18.8854 19.9787 18.6421ZM14.2215 22.0022C14.8143 22.0022 15.3907 22.0695 15.9508 22.2041C16.5108 22.3386 17.0678 22.5272 17.6216 22.7699V15.3401C17.1067 15.0458 16.5593 14.8283 15.9795 14.6876C15.4003 14.5463 14.8143 14.4756 14.2215 14.4756C13.7708 14.4756 13.3171 14.514 12.8603 14.5908C12.4028 14.6676 11.968 14.7893 11.5557 14.9558V22.4437C12.0063 22.303 12.4507 22.1942 12.889 22.1174C13.3267 22.0406 13.7708 22.0022 14.2215 22.0022ZM19.2443 22.7699C19.7982 22.5272 20.3551 22.3386 20.9152 22.2041C21.4753 22.0695 22.0452 22.0022 22.625 22.0022C23.0886 22.0022 23.5362 22.0406 23.9677 22.1174C24.3991 22.1942 24.8467 22.3094 25.3103 22.463V15.0138C24.872 14.8344 24.431 14.6999 23.9871 14.6102C23.5427 14.5205 23.0886 14.4756 22.625 14.4756C22.0452 14.4756 21.4623 14.5463 20.8763 14.6876C20.2909 14.8283 19.7469 15.0458 19.2443 15.3401V22.7699ZM18.433 24.8629C18.3168 24.8629 18.204 24.8469 18.0945 24.8149C17.9851 24.783 17.8791 24.7351 17.7765 24.6712C17.2356 24.3382 16.6688 24.0789 16.0759 23.8933C15.4837 23.7078 14.8656 23.615 14.2215 23.615C13.6676 23.615 13.1267 23.6949 12.5988 23.8546C12.0709 24.015 11.5621 24.2233 11.0726 24.4795C10.8154 24.6202 10.5613 24.6168 10.3104 24.4693C10.0588 24.3225 9.93298 24.1016 9.93298 23.8067V14.4756C9.93298 14.3349 9.96853 14.2071 10.0396 14.0923C10.1101 13.9767 10.2099 13.887 10.3391 13.8231C10.9443 13.5031 11.572 13.2631 12.2223 13.1034C12.8726 12.943 13.539 12.8629 14.2215 12.8629C14.9558 12.8629 15.6803 12.9556 16.3949 13.1412C17.1095 13.3273 17.7889 13.606 18.433 13.9771C19.0771 13.606 19.7534 13.3273 20.4618 13.1412C21.1696 12.9556 21.8907 12.8629 22.625 12.8629C23.3075 12.8629 23.9739 12.9461 24.6242 13.1126C25.2745 13.2791 25.9087 13.516 26.5269 13.8231C26.656 13.887 26.7559 13.9767 26.8264 14.0923C26.8974 14.2071 26.933 14.3349 26.933 14.4756V23.8067C26.933 24.1016 26.8072 24.3225 26.5556 24.4693C26.3046 24.6168 26.0441 24.6202 25.7739 24.4795C25.2844 24.2104 24.7756 23.999 24.2477 23.8454C23.7198 23.6918 23.1789 23.615 22.625 23.615C21.9939 23.615 21.3822 23.7078 20.79 23.8933C20.1972 24.0789 19.6304 24.3382 19.0895 24.6712C18.9869 24.7351 18.8808 24.783 18.7714 24.8149C18.662 24.8469 18.5492 24.8629 18.433 24.8629Z" fill="#112340"/>
</svg>
