<svg width="23" height="25" viewBox="0 0 23 25" fill="none" xmlns="http://www.w3.org/2000/svg">
<path d="M5.81893 15.9155C5.35577 15.9155 4.96517 15.7514 4.64714 15.4234C4.32833 15.0953 4.18823 14.7093 4.22682 14.2655C4.28472 13.455 4.4777 12.7506 4.80577 12.1523C5.13384 11.5541 5.65489 10.9365 6.36893 10.2997C7.16016 9.60496 7.76303 9.0017 8.17756 8.48991C8.59286 7.97889 8.80051 7.39531 8.80051 6.73917C8.80051 5.94794 8.53535 5.2918 8.00503 4.77075C7.47395 4.2497 6.7356 3.98917 5.78998 3.98917C5.17244 3.98917 4.64675 4.11924 4.21293 4.37938C3.77833 4.64029 3.42595 4.96373 3.15577 5.3497C2.8856 5.73566 2.55289 5.99619 2.15767 6.13128C1.76167 6.26636 1.38033 6.25671 1.01367 6.10233C0.569806 5.90935 0.266052 5.59092 0.102402 5.14706C-0.0620186 4.7032 -0.0284392 4.28829 0.20314 3.90233C0.762789 3.03391 1.51542 2.31022 2.46103 1.73128C3.40665 1.15233 4.5163 0.862854 5.78998 0.862854C7.8163 0.862854 9.37482 1.42752 10.4656 2.55685C11.5555 3.68542 12.1005 5.04092 12.1005 6.62338C12.1005 7.58829 11.8932 8.41349 11.4787 9.09896C11.0634 9.78366 10.4119 10.5602 9.52419 11.4286C8.86805 12.0462 8.40489 12.5479 8.13472 12.9339C7.86454 13.3199 7.68121 13.7637 7.58472 14.2655C7.50753 14.7479 7.30489 15.1436 6.97682 15.4523C6.64875 15.7611 6.26279 15.9155 5.81893 15.9155ZM5.78998 22.8629C5.15314 22.8629 4.60816 22.6363 4.15503 22.1832C3.70114 21.7293 3.47419 21.1839 3.47419 20.5471C3.47419 19.9102 3.70114 19.3649 4.15503 18.911C4.60816 18.4578 5.15314 18.2313 5.78998 18.2313C6.42682 18.2313 6.97219 18.4578 7.42609 18.911C7.87921 19.3649 8.10577 19.9102 8.10577 20.5471C8.10577 21.1839 7.87921 21.7293 7.42609 22.1832C6.97219 22.6363 6.42682 22.8629 5.78998 22.8629Z" fill="#112340"/>
<path fill-rule="evenodd" clip-rule="evenodd" d="M12 14.8629V22.8629H21V14.8629H12ZM11.1818 12.8629C10.5291 12.8629 10 13.392 10 14.0447V23.681C10 24.3337 10.5291 24.8629 11.1818 24.8629H21.8182C22.4709 24.8629 23 24.3337 23 23.681V14.0447C23 13.392 22.4709 12.8629 21.8182 12.8629H11.1818Z" fill="#112340"/>
<path d="M19.1758 18.3531C19.5653 18.5814 19.5653 19.1444 19.1758 19.3726L15.617 21.459C15.2231 21.6899 14.7272 21.4058 14.7272 20.9492V16.7766C14.7272 16.3199 15.2231 16.0359 15.617 16.2668L19.1758 18.3531Z" fill="#112340"/>
</svg>
