<svg width="23" height="23" viewBox="0 0 23 23" fill="none" xmlns="http://www.w3.org/2000/svg">
<path fill-rule="evenodd" clip-rule="evenodd" d="M2.55493 10.8629H6.55009C6.7743 8.09967 7.6991 5.44728 9.22571 3.15268C5.66881 4.07882 2.96801 7.12609 2.55493 10.8629ZM11.5 3.41365C9.83032 5.56479 8.80879 8.14968 8.55759 10.8629H14.4424C14.1912 8.14968 13.1697 5.56479 11.5 3.41365ZM14.4424 12.8629C14.1912 15.576 13.1697 18.1609 11.5 20.3121C9.83032 18.1609 8.80879 15.576 8.55759 12.8629H14.4424ZM6.55009 12.8629H2.55493C2.96801 16.5996 5.66881 19.6469 9.22571 20.573C7.6991 18.2784 6.7743 15.626 6.55009 12.8629ZM13.7743 20.573C15.3009 18.2784 16.2257 15.626 16.4499 12.8629H20.4451C20.032 16.5996 17.3312 19.6469 13.7743 20.573ZM20.4451 10.8629H16.4499C16.2257 8.09967 15.3009 5.44728 13.7743 3.15268C17.3312 4.07882 20.032 7.12609 20.4451 10.8629ZM0.5 11.8629C0.5 5.78772 5.42487 0.862854 11.5 0.862854C17.5751 0.862854 22.5 5.78772 22.5 11.8629C22.5 17.938 17.5751 22.8629 11.5 22.8629C5.42487 22.8629 0.5 17.938 0.5 11.8629Z" fill="#112340"/>
</svg>
